<svg xmlns="http://www.w3.org/2000/svg" width="21.903" height="27" viewBox="0 0 21.903 27">
  <path id="Subtraction_144" data-name="Subtraction 144" d="M10.058,27h0l-8.9-3.278c-.01,0-1.047-.471-1.047-1.038L0,1.051A1.043,1.043,0,0,1,.983.015L.959,0H15.346a1.8,1.8,0,0,1,1.747,1.838v4.5h-1v-4.5a.776.776,0,0,0-.749-.8H3.288l6.83,3.131c.01,0,1.048.471,1.048,1.038l-.06,20.752A1.044,1.044,0,0,1,10.058,27ZM8.487,14.434A1.2,1.2,0,0,0,7.44,15.743a1.2,1.2,0,0,0,1.047,1.309,1.2,1.2,0,0,0,1.047-1.309A1.2,1.2,0,0,0,8.487,14.434Zm8.38,8.039a1.644,1.644,0,0,1-.211-.013V16.474h.934v5.232c0,.006,0,.574-.273.69A1.216,1.216,0,0,1,16.867,22.473Zm.687-7.206h0V12.351H13.2v-1.92h4.35V7.563l4.35,4.01-4.349,3.693Z" fill="#292929"/>
</svg>
