<svg xmlns="http://www.w3.org/2000/svg" width="18.003" height="16.262" viewBox="0 0 18.003 16.262">
  <path id="Break" d="M2384.828-15557.74a4.411,4.411,0,0,1-1.183-.32c-1.249-.218-1.937-.479-1.937-.731h14.818c0,.253-.691.511-1.94.731a4.522,4.522,0,0,1-1.18.32Zm1.426-1.446c-1.479,0-2.432-.794-2.432-2.027v-4.015a2.819,2.819,0,0,0,1.691-2.571v-.053h8.746v7.058a2.156,2.156,0,0,1-2.391,1.608Zm8.276-2.586a2.64,2.64,0,0,0,1.663-2.355,2.645,2.645,0,0,0-1.663-2.356v-.877a3.5,3.5,0,0,1,2.472,3.233,3.5,3.5,0,0,1-2.472,3.234ZM2379-15568.6a2.837,2.837,0,0,1,2.858-2.814,2.837,2.837,0,0,1,2.858,2.814,2.838,2.838,0,0,1-2.858,2.817A2.838,2.838,0,0,1,2379-15568.6Zm2.637-1.73v1.947a.22.22,0,0,0,.221.218h1.32a.217.217,0,0,0,.218-.218.218.218,0,0,0-.218-.217h-1.1v-1.73a.219.219,0,0,0-.221-.216A.219.219,0,0,0,2381.636-15570.327Zm9.385,1.009a2.724,2.724,0,0,0,.4-1.582.3.3,0,0,0-.19-.184,1.088,1.088,0,0,1-.657-.667,3.27,3.27,0,0,1,.452-2.251l.707.4a2.624,2.624,0,0,0-.4,1.579.29.29,0,0,0,.187.187,1.106,1.106,0,0,1,.66.666,3.292,3.292,0,0,1-.451,2.251Zm-2.258,0a2.726,2.726,0,0,0,.4-1.582.3.3,0,0,0-.19-.184,1.088,1.088,0,0,1-.657-.667,3.287,3.287,0,0,1,.451-2.251l.707.4a2.633,2.633,0,0,0-.4,1.579.294.294,0,0,0,.187.187,1.1,1.1,0,0,1,.66.666,3.375,3.375,0,0,1-.451,2.251Zm-2.257,0a2.728,2.728,0,0,0,.4-1.582.3.3,0,0,0-.19-.184,1.089,1.089,0,0,1-.657-.667,3.287,3.287,0,0,1,.452-2.251l.707.4a2.689,2.689,0,0,0-.4,1.579.3.3,0,0,0,.187.187,1.1,1.1,0,0,1,.66.666,3.29,3.29,0,0,1-.451,2.251Z" transform="translate(-2378.999 15574.002)" fill="#292929"/>
</svg>
