<svg xmlns="http://www.w3.org/2000/svg" width="29.967" height="30" viewBox="0 0 29.967 30">
  <g id="calendar" transform="translate(-1 -0.964)" opacity="0.5">
    <path id="Path_135" data-name="Path 135" d="M30.949,11.764H1.018A.338.338,0,0,0,1,11.882V29.844a2.989,2.989,0,0,0,2.983,2.988h24a2.99,2.99,0,0,0,2.988-2.988V11.882A.337.337,0,0,0,30.949,11.764ZM8.1,29.386a.455.455,0,0,1-.454.454H5.086a.455.455,0,0,1-.454-.454V26.825a.452.452,0,0,1,.454-.454H7.647a.452.452,0,0,1,.454.454v2.561Zm0-5.975a.455.455,0,0,1-.454.454H5.086a.455.455,0,0,1-.454-.454V20.85a.455.455,0,0,1,.454-.454H7.647a.455.455,0,0,1,.454.454v2.561Zm6.411,5.975a.455.455,0,0,1-.454.454H11.5a.455.455,0,0,1-.454-.454V26.825a.452.452,0,0,1,.454-.454h2.561a.452.452,0,0,1,.454.454v2.561Zm0-5.975a.455.455,0,0,1-.454.454H11.5a.455.455,0,0,1-.454-.454V20.85A.455.455,0,0,1,11.5,20.4h2.561a.455.455,0,0,1,.454.454v2.561Zm6.411,5.975a.455.455,0,0,1-.454.454H17.909a.452.452,0,0,1-.454-.454V26.825a.45.45,0,0,1,.454-.454H20.47a.452.452,0,0,1,.454.454Zm0-5.975a.455.455,0,0,1-.454.454H17.909a.452.452,0,0,1-.454-.454V20.85a.452.452,0,0,1,.454-.454H20.47a.455.455,0,0,1,.454.454Zm0-5.975a.455.455,0,0,1-.454.454H17.909a.452.452,0,0,1-.454-.454V14.874a.452.452,0,0,1,.454-.454H20.47a.455.455,0,0,1,.454.454Zm6.411,11.951a.455.455,0,0,1-.454.454H24.32a.452.452,0,0,1-.454-.454V26.825a.45.45,0,0,1,.454-.454h2.561a.452.452,0,0,1,.454.454Zm0-5.975a.455.455,0,0,1-.454.454H24.32a.452.452,0,0,1-.454-.454V20.85a.452.452,0,0,1,.454-.454h2.561a.455.455,0,0,1,.454.454Zm0-5.975a.455.455,0,0,1-.454.454H24.32a.452.452,0,0,1-.454-.454V14.874a.452.452,0,0,1,.454-.454h2.561a.455.455,0,0,1,.454.454ZM27.98,4.386H25.192V7.251a1.773,1.773,0,1,1-3.137,1.135,1.759,1.759,0,0,1,.413-1.135V4.386H9.5V7.251a1.771,1.771,0,1,1-2.724,0V4.386H3.983A2.989,2.989,0,0,0,1,7.374v3.483H30.967V7.374A2.99,2.99,0,0,0,27.98,4.386ZM14.68,8.838h-2.1a.454.454,0,1,1,0-.908h2.1a.454.454,0,0,1,0,.908Zm4.709,0H16.852a.454.454,0,1,1,0-.908h2.536a.454.454,0,0,1,0,.908Z" transform="translate(0 -1.868)" fill="#292929"/>
    <path id="Path_136" data-name="Path 136" d="M16.175,6.97a.454.454,0,0,0,.454-.454v-5.1a.454.454,0,0,0-.908,0v5.1A.454.454,0,0,0,16.175,6.97Zm15.689,0a.454.454,0,0,0,.454-.454v-5.1a.454.454,0,1,0-.908,0v5.1A.454.454,0,0,0,31.864,6.97Z" transform="translate(-8.037 0)" fill="#292929"/>
  </g>
</svg>
