<svg xmlns="http://www.w3.org/2000/svg" width="39.692" height="39.241" viewBox="0 0 39.692 39.241">
  <path id="Company_info" data-name="Company info" d="M0,39.241V33.829H2.255V0h1.8V4.059h8.6a3.157,3.157,0,0,1,6.25,0h6.379a3.158,3.158,0,0,1,6.283.451V4.059h4.059V0h1.8V33.829h2.255v5.412Zm35.633-5.412V30.22H33.346a3.158,3.158,0,0,1-6.251,0H25.227a3.158,3.158,0,0,1-6.251,0h-6.6a3.158,3.158,0,0,1-6.251,0H4.059v3.609Zm0-4.511V22.1H33.346a3.158,3.158,0,0,1-6.251,0H25.227a3.158,3.158,0,0,1-6.251,0h-2.77a3.158,3.158,0,0,1-6.251,0h-5.9v7.217H6.121a3.158,3.158,0,0,1,6.251,0h6.6a3.158,3.158,0,0,1,6.251,0h1.868a3.158,3.158,0,0,1,6.251,0Zm0-8.119V13.08H24.325a3.158,3.158,0,0,1-6.251,0H14.4a3.158,3.158,0,0,1-6.251,0H4.059V21.2h5.9a3.158,3.158,0,0,1,6.251,0h2.77a3.158,3.158,0,0,1,6.251,0h1.868a3.158,3.158,0,0,1,6.251,0Zm0-9.021V4.961H31.574V4.511a3.158,3.158,0,0,1-6.283.451H18.912a3.157,3.157,0,0,1-6.25,0h-8.6v7.217H8.151a3.158,3.158,0,0,1,6.251,0h3.672a3.158,3.158,0,0,1,6.251,0ZM31.574,4.511Z" fill="#61bfb5"/>
</svg>
