<svg xmlns="http://www.w3.org/2000/svg" width="37.211" height="37.211" viewBox="0 0 37.211 37.211">
  <path id="Dashboard" d="M5.067,23.673h12.4a2.073,2.073,0,0,0,2.067-2.067V5.067A2.073,2.073,0,0,0,17.471,3H5.067A2.073,2.073,0,0,0,3,5.067V21.605A2.073,2.073,0,0,0,5.067,23.673Zm0,16.538h12.4a2.073,2.073,0,0,0,2.067-2.067V29.875a2.073,2.073,0,0,0-2.067-2.067H5.067A2.073,2.073,0,0,0,3,29.875v8.269A2.073,2.073,0,0,0,5.067,40.211Zm20.673,0h12.4a2.073,2.073,0,0,0,2.067-2.067V21.605a2.073,2.073,0,0,0-2.067-2.067H25.74a2.073,2.073,0,0,0-2.067,2.067V38.144A2.073,2.073,0,0,0,25.74,40.211ZM23.673,5.067v8.269A2.073,2.073,0,0,0,25.74,15.4h12.4a2.073,2.073,0,0,0,2.067-2.067V5.067A2.073,2.073,0,0,0,38.144,3H25.74A2.073,2.073,0,0,0,23.673,5.067Z" transform="translate(-3 -3)" fill="rgba(41,41,41,0.5)"/>
</svg>
