<svg width="22" height="23" viewBox="0 0 22 23" fill="none" xmlns="http://www.w3.org/2000/svg">
<g clip-path="url(#clip0_758_861)">
<path d="M10.3924 22.3915C8.88588 22.3908 7.39755 22.0627 6.03048 21.4297C4.6634 20.7968 3.45026 19.8743 2.4751 18.726C1.49993 17.5777 0.786059 16.2311 0.38293 14.7796C-0.0202005 13.3281 -0.10295 11.8062 0.140415 10.3195C0.383779 8.83284 0.947438 7.41682 1.79235 6.16958C2.63725 4.92233 3.74321 3.87368 5.0336 3.09626C6.32399 2.31884 7.76796 1.83124 9.26549 1.66724C10.763 1.50324 12.2783 1.66676 13.7064 2.14647C13.4938 2.82068 13.4431 3.53547 13.5583 4.23294C13.6735 4.9304 13.9515 5.5909 14.3696 6.16093C14.7877 6.73095 15.3342 7.19446 15.9648 7.51388C16.5954 7.8333 17.2925 7.99966 17.9994 7.99947C18.6258 8.00077 19.2456 7.87028 19.8184 7.61647C20.5531 9.20054 20.8772 10.9441 20.7606 12.6864C20.6441 14.4287 20.0908 16.1136 19.1517 17.5857C18.2126 19.0579 16.9179 20.2698 15.3871 21.1099C13.8562 21.95 12.1385 22.39 10.3924 22.3915ZM10.3924 4.80347C10.1802 4.80347 9.97671 4.88775 9.82668 5.03778C9.67665 5.18781 9.59237 5.3913 9.59237 5.60347V12.8035C9.59237 13.0156 9.67665 13.2191 9.82668 13.3692C9.97671 13.5192 10.1802 13.6035 10.3924 13.6035H15.1924C15.4045 13.6035 15.608 13.5192 15.7581 13.3692C15.9081 13.2191 15.9924 13.0156 15.9924 12.8035C15.9924 12.5913 15.9081 12.3878 15.7581 12.2378C15.608 12.0878 15.4045 12.0035 15.1924 12.0035H11.1924V5.60647C11.1924 5.3943 11.1081 5.19081 10.9581 5.04078C10.808 4.89075 10.6045 4.80647 10.3924 4.80647V4.80347Z" fill="#292929"/>
<path d="M18 7C19.933 7 21.5 5.433 21.5 3.5C21.5 1.567 19.933 0 18 0C16.067 0 14.5 1.567 14.5 3.5C14.5 5.433 16.067 7 18 7Z" fill="#FFA500"/>
</g>
<defs>
<clipPath id="clip0_758_861">
<rect width="21.5" height="22.393" fill="white"/>
</clipPath>
</defs>
</svg>
