<svg xmlns="http://www.w3.org/2000/svg" width="75.299" height="77.001" viewBox="0 0 75.299 77.001">
  <path id="Failed_Dimona" data-name="Failed Dimona" d="M16756.992,11681.268c0-19.711,16.326-35.742,36.4-35.742a37.009,37.009,0,0,1,11.605,1.854,15.164,15.164,0,0,0-.727,4.655,15.633,15.633,0,0,0,15.756,15.474,15.867,15.867,0,0,0,6.371-1.318,34.955,34.955,0,0,1,3.383,15.077c0,19.7-16.322,35.733-36.389,35.733S16756.992,11700.97,16756.992,11681.268Zm33.6-22v24.742a2.778,2.778,0,0,0,2.8,2.75h16.8a2.749,2.749,0,1,0,0-5.5h-14v-22a2.8,2.8,0,0,0-5.6,0Zm16.6-6.721a12.551,12.551,0,1,1,12.551,12.55A12.566,12.566,0,0,1,16807.189,11652.551Zm15.732,4.545a.969.969,0,0,0,1.635-.427.978.978,0,0,0-.271-.941l-3.176-3.177,3.176-3.182a.965.965,0,0,0-1.363-1.364l-3.182,3.181-3.176-3.181a.967.967,0,0,0-1.369,1.364l3.182,3.182-3.182,3.177a.968.968,0,0,0,1.369,1.368l3.176-3.181Z" transform="translate(-16756.992 -11640)" fill="#073763"/>
</svg>
