<svg xmlns="http://www.w3.org/2000/svg" width="29.24" height="30" viewBox="0 0 29.24 30">
  <path id="Dimona" d="M16757,11656.077a14.05,14.05,0,0,1,14.137-13.926,14.259,14.259,0,0,1,4.5.726,6.016,6.016,0,0,0-.279,1.812,6.082,6.082,0,0,0,6.119,6.029,6.149,6.149,0,0,0,2.475-.514,13.641,13.641,0,0,1,1.314,5.873,14.135,14.135,0,0,1-28.268,0Zm13.047-8.57v9.642a1.082,1.082,0,0,0,1.09,1.069h6.521a1.07,1.07,0,1,0,0-2.141h-5.436v-8.57a1.088,1.088,0,0,0-2.176,0Zm8.066.5a4.64,4.64,0,0,1,0-6.632,4.81,4.81,0,0,1,6.732,0,4.64,4.64,0,0,1,0,6.632,4.81,4.81,0,0,1-6.732,0Zm.721-3.85a.326.326,0,0,0-.107.46l1.193,1.893.188.294,4.426-2.977a.328.328,0,0,0,.145-.216.335.335,0,0,0-.055-.247.342.342,0,0,0-.281-.146.335.335,0,0,0-.189.058l-3.844,2.587-1.008-1.6a.341.341,0,0,0-.291-.156A.347.347,0,0,0,16778.834,11644.155Z" transform="translate(-16757 -11639.999)" fill="#292929" opacity="0.5"/>
</svg>
