<svg id="Dimona_fail" data-name="Dimona fail" xmlns="http://www.w3.org/2000/svg" width="21.5" height="22.393" viewBox="0 0 21.5 22.393">
  <path id="Subtraction_1" data-name="Subtraction 1" d="M10.393,20.785A10.393,10.393,0,1,1,13.707.54,4.5,4.5,0,0,0,18,6.393a4.467,4.467,0,0,0,1.819-.383,10.4,10.4,0,0,1-9.426,14.776Zm0-17.588a.8.8,0,0,0-.8.8v7.2a.8.8,0,0,0,.8.8h4.8a.8.8,0,1,0,0-1.6h-4V4A.8.8,0,0,0,10.393,3.2Z" transform="translate(0 1.607)" fill="#292929"/>
  <circle id="Ellipse_19" data-name="Ellipse 19" cx="3.5" cy="3.5" r="3.5" transform="translate(14.5)" fill="#ff1b1b"/>
</svg>
