<svg xmlns="http://www.w3.org/2000/svg" width="29.057" height="29.023" viewBox="0 0 29.057 29.023">
  <path id="emailforwarders" d="M28.881,20.8l-9.932-9.9L28.881.964a2,2,0,0,1,.2.852v18.16A1.819,1.819,0,0,1,28.881,20.8ZM1.81,0H27.291L14.551,12.741ZM.221,20.8a1.819,1.819,0,0,1-.2-.823V1.816a2,2,0,0,1,.2-.852L10.152,10.9Zm13.223-6.611a1.059,1.059,0,0,0,.44.255,1.592,1.592,0,0,0,.469.085h.2a1.423,1.423,0,0,0,1.107-.34l2.015-2.015,9.619,9.619h-.028v.057l.015.113-.015.17-.071.212-.128.242-.227.284-6.9,5.9a1.409,1.409,0,0,1-.809.242,3.949,3.949,0,0,1-1.192-.1,2.731,2.731,0,0,1-1.092-.525,1.144,1.144,0,0,1-.482-.922V25.423H10.919A1.84,1.84,0,0,1,9.1,23.608V21.792H1.812l9.619-9.619Zm-.709,9.42h5.448v2.3q.738.709,1.22.227l4.228-3.661a.96.96,0,0,0,0-1.362L19.4,17.45q-.482-.482-1.22.227v2.3H12.735a1.816,1.816,0,0,0,0,3.632Z" transform="translate(-0.022)" fill="#292929"/>
</svg>
