<svg xmlns="http://www.w3.org/2000/svg" width="18.856" height="14.6" viewBox="0 0 18.856 14.6">
  <g id="Email" transform="translate(-4.14 -7.268)">
    <path id="Path_169" data-name="Path 169" d="M22.37,7.268H4.766a.626.626,0,0,0-.626.626v1.26a.214.214,0,0,0,.114.152l9.253,5.285a.157.157,0,0,0,.157,0l8.973-5.279c.05-.028.184-.1.235-.137S23,9.1,23,9.021V7.894a.626.626,0,0,0-.626-.626Z" transform="translate(0 0)" fill="#292929"/>
    <path id="Path_170" data-name="Path 170" d="M29.247,12.823a.158.158,0,0,0-.158,0l-5.078,2.988a.156.156,0,0,0-.035.241l5.079,5.475a.156.156,0,0,0,.271-.107V12.959a.156.156,0,0,0-.078-.136Z" transform="translate(-6.33 -1.77)" fill="#292929"/>
    <path id="Path_171" data-name="Path 171" d="M16.329,18.677a.156.156,0,0,0-.194-.029l-2.035,1.2a.794.794,0,0,1-.786.005l-1.791-1.023a.156.156,0,0,0-.184.021l-6.8,6.308a.156.156,0,0,0,.028.25.61.61,0,0,0,.312.092H22.3a.157.157,0,0,0,.115-.263Z" transform="translate(-0.111 -3.632)" fill="#292929"/>
    <path id="Path_172" data-name="Path 172" d="M9.731,16.3a.156.156,0,0,0-.028-.25L4.373,13a.156.156,0,0,0-.233.136v7.988a.156.156,0,0,0,.263.114L9.731,16.3Z" transform="translate(0 -1.828)" fill="#292929"/>
  </g>
</svg>
