<svg xmlns="http://www.w3.org/2000/svg" width="39.692" height="21.006" viewBox="0 0 39.692 21.006">
  <path id="Employees" d="M19.852,27.52c2.32,0,4.6-3.771,4.6-7.61,0-4.006-2.506-4.85-4.6-4.85s-4.6.843-4.6,4.85C15.251,23.749,17.527,27.52,19.852,27.52Zm7.715,2.859a20.266,20.266,0,0,1-3.355-1.439c-.6-.323-1.228-.676-1.867-1.061a3.853,3.853,0,0,1-4.993,0c-.5.3-1.141.682-1.873,1.061-.341.18-.67.341-.98.49a17.742,17.742,0,0,1-2.369.949c-2.568.8-3.219,4.236-3.374,5.687H30.941C30.78,34.621,30.141,31.185,27.568,30.379Zm4.006-3.436a2.071,2.071,0,0,0,1.352-.589c.019-.012.031-.031.05-.043a7.009,7.009,0,0,0,1.873-4.9c0-2.865-1.786-3.467-3.281-3.467s-3.287.6-3.287,3.467a7,7,0,0,0,1.892,4.912A2.211,2.211,0,0,0,31.574,26.943ZM37.311,29.4a15.386,15.386,0,0,1-2.543-1.085c-.509-.267-.961-.533-1.315-.744a3.2,3.2,0,0,1-1.873.657,3.145,3.145,0,0,1-1.879-.657c-.44.267-.881.521-1.315.744s-.825.416-1.2.577c.267.105.521.186.763.26a6.033,6.033,0,0,1,3.721,4.186h8.019C39.55,32.2,39.041,29.945,37.311,29.4ZM6.766,26.348a2.084,2.084,0,0,0,1.352.589A2.122,2.122,0,0,0,9.5,26.329l.025-.025a6.985,6.985,0,0,0,1.879-4.9c0-2.865-1.786-3.467-3.287-3.467s-3.281.6-3.281,3.467A7,7,0,0,0,6.7,26.3.542.542,0,0,1,6.766,26.348Zm4.986,2.809c.242-.068.5-.161.763-.26-.372-.167-.769-.36-1.2-.577-.509-.26-.955-.527-1.315-.744a3.183,3.183,0,0,1-1.873.657,3.141,3.141,0,0,1-1.873-.657c-.335.2-.788.471-1.321.744A14.885,14.885,0,0,1,2.4,29.405C.657,29.945.149,32.2,0,33.343H8.025A6.005,6.005,0,0,1,11.753,29.157Z" transform="translate(0 -15.06)" fill="#61bfb5"/>
</svg>
