<svg xmlns="http://www.w3.org/2000/svg" width="16.06" height="16.262" viewBox="0 0 16.06 16.262">
  <g id="Euro" transform="translate(-70.047 -32.771)">
    <path id="Path_168" data-name="Path 168" d="M154.488,85.914l-.007,0C154.441,85.917,154.47,85.916,154.488,85.914Z" transform="translate(-81.866 -51.538)" fill="#292929"/>
    <path id="Path_169" data-name="Path 169" d="M155.379,85.859l-.012,0Z" transform="translate(-82.745 -51.485)" fill="#292929"/>
    <path id="Path_170" data-name="Path 170" d="M553.224,93.653a.1.1,0,0,0,0-.028C553.226,93.635,553.231,93.672,553.224,93.653Z" transform="translate(-468.59 -59.017)" fill="#292929"/>
    <path id="Path_171" data-name="Path 171" d="M154.481,85.916c-.041,0-.012,0,.007,0A.01.01,0,0,0,154.481,85.916Z" transform="translate(-81.865 -51.538)" fill="#292929"/>
    <path id="Union_218" data-name="Union 218" d="M15276.606,11376.306a6.207,6.207,0,0,1-1.592-.25,6.683,6.683,0,0,1-2.73-1.606,7.529,7.529,0,0,1-1.032-1.258,7.725,7.725,0,0,1-.752-1.5c-.018-.046-.035-.092-.052-.138h-2.41a1.027,1.027,0,0,1-.7-.292,1,1,0,0,1,0-1.4,1.027,1.027,0,0,1,.7-.292h.016c.368,0,.736,0,1.108,0h.861a7.261,7.261,0,0,1-.025-1.1c.006-.113.014-.226.024-.338h-1.984a1.04,1.04,0,0,1-.7-.287,1,1,0,0,1,0-1.4,1.031,1.031,0,0,1,.7-.291h.016c.368,0,.736,0,1.108,0h1.287a7.882,7.882,0,0,1,.435-1.013,7.13,7.13,0,0,1,2-2.4,6.232,6.232,0,0,1,4.5-1.312,7.355,7.355,0,0,1,1.032.188,7.186,7.186,0,0,1,.951.353,6.631,6.631,0,0,1,1.53.979,7.189,7.189,0,0,1,1.238,1.365.991.991,0,0,1-1.12,1.453.7.7,0,0,1-.337-.176.768.768,0,0,1-.257-.276l-.062-.086a6.2,6.2,0,0,0-.922-.924,5.829,5.829,0,0,0-1.022-.6,4.257,4.257,0,0,0-2.2-.3,5.494,5.494,0,0,0-1.11.3,5.6,5.6,0,0,0-1.055.623,6.167,6.167,0,0,0-.89.9,6.693,6.693,0,0,0-.575.93h4.592a1.021,1.021,0,0,1,.7.291,1,1,0,0,1,.291.7,1.029,1.029,0,0,1-.291.7,1.017,1.017,0,0,1-.7.287h-.016c-.372,0-.74,0-1.108,0H15272a7.375,7.375,0,0,0,0,1.438h5.179a1.028,1.028,0,0,1,.7.292,1,1,0,0,1,.291.7,1,1,0,0,1-.989.99h-.016c-.372,0-.74,0-1.108,0h-3.467a6.511,6.511,0,0,0,.566.921,6.162,6.162,0,0,0,.906.913,5.306,5.306,0,0,0,1.048.618,5.154,5.154,0,0,0,1.092.3,5.362,5.362,0,0,0,1.105,0,5.448,5.448,0,0,0,1.077-.289,5.691,5.691,0,0,0,1.1-.65,6.177,6.177,0,0,0,.9-.921l.035-.049a1.165,1.165,0,0,1,.356-.368c.08-.031.157-.065.237-.1a.98.98,0,0,1,1.216.69.726.726,0,0,1,.02.4.716.716,0,0,1-.115.368,8.39,8.39,0,0,1-.645.8,6.967,6.967,0,0,1-1.407,1.162,5.24,5.24,0,0,1-.694.368,7.126,7.126,0,0,1-.951.36,6.762,6.762,0,0,1-1.031.188,4.844,4.844,0,0,1-.641.041Zm-.28-1.983Zm-1.108-.269Zm-1.035-.567Zm6.1-.909.05-.063Zm-7.053,0Zm7.206-7.252Zm-.894-.944Zm-5.478-.072.116-.092C15274.144,11364.247,15274.1,11364.277,15274.066,11364.309Zm4.465-.561Zm-1.066-.329c-.029,0-.06-.009-.09-.012Z" transform="translate(-15196.16 -11328.619)" fill="#292929"/>
    <g id="Group_6236" data-name="Group 6236" transform="translate(70.05 48.871)">
      <path id="Path_175" data-name="Path 175" d="M.192-1.973l-.009,0H.173a.034.034,0,0,1-.024-.008A.031.031,0,0,1,.141-2a.031.031,0,0,1,.008-.023.033.033,0,0,1,.024-.008H.183l.009,0v.012l-.008,0H.174a.016.016,0,0,0-.013.006A.02.02,0,0,0,.157-2a.022.022,0,0,0,0,.015.016.016,0,0,0,.013.005H.183l.008,0Z" transform="translate(-0.141 2.031)" fill="#292929"/>
    </g>
    <g id="Group_6237" data-name="Group 6237" transform="translate(70.113 48.887)">
      <path id="Path_176" data-name="Path 176" d="M.268-1.518H.26a.011.011,0,0,0-.009,0,.015.015,0,0,0,0,.01v.021H.234V-1.53H.249v.008l.006-.006.009,0h0Z" transform="translate(-0.234 1.531)" fill="#292929"/>
    </g>
    <g id="Group_6238" data-name="Group 6238" transform="translate(70.151 48.887)">
      <path id="Path_177" data-name="Path 177" d="M.173-1.508v0H.14a.011.011,0,0,0,0,.008.014.014,0,0,0,.009,0H.161l.01,0v.011l-.01,0H.15A.026.026,0,0,1,.132-1.49a.022.022,0,0,1-.007-.017.022.022,0,0,1,.007-.017A.025.025,0,0,1,.15-1.531a.022.022,0,0,1,.017.007.022.022,0,0,1,.007.017Zm-.015,0a.009.009,0,0,0,0-.007.008.008,0,0,0-.007,0l-.007,0a.01.01,0,0,0,0,.007Z" transform="translate(-0.125 1.531)" fill="#292929"/>
    </g>
    <g id="Group_6239" data-name="Group 6239" transform="translate(70.207 48.887)">
      <path id="Path_178" data-name="Path 178" d="M.149-1.505H.142a0,0,0,0,0,0,0,0,0,0,0,0,0,0H.146a.008.008,0,0,0,.007,0,.01.01,0,0,0,0-.008H.149ZM.17-1.511v.026H.156v-.007a.017.017,0,0,1-.007.006H.141a.016.016,0,0,1-.011,0,.015.015,0,0,1,0-.011A.012.012,0,0,1,.13-1.51a.031.031,0,0,1,.017,0H.156a0,0,0,0,0,0,0l-.008,0H.136l-.007,0v-.011l.009,0H.147a.026.026,0,0,1,.017,0,.019.019,0,0,1,.006.016Z" transform="translate(-0.125 1.531)" fill="#292929"/>
    </g>
    <g id="Group_6240" data-name="Group 6240" transform="translate(70.259 48.875)">
      <path id="Path_179" data-name="Path 179" d="M.053-1.922v.013H.068v.01H.053v.019a.007.007,0,0,0,0,0H.067v.01H.054a.018.018,0,0,1-.012,0,.018.018,0,0,1,0-.012V-1.9H.031v-.01H.039v-.013Z" transform="translate(-0.031 1.922)" fill="#292929"/>
    </g>
    <g id="Group_6241" data-name="Group 6241" transform="translate(70.302 48.887)">
      <path id="Path_180" data-name="Path 180" d="M.173-1.508v0H.14a.011.011,0,0,0,0,.008.014.014,0,0,0,.009,0H.161l.01,0v.011l-.01,0H.15A.026.026,0,0,1,.132-1.49a.022.022,0,0,1-.007-.017.022.022,0,0,1,.007-.017A.025.025,0,0,1,.15-1.531a.022.022,0,0,1,.017.007.022.022,0,0,1,.007.017Zm-.015,0a.009.009,0,0,0,0-.007.008.008,0,0,0-.007,0l-.007,0a.01.01,0,0,0,0,.007Z" transform="translate(-0.125 1.531)" fill="#292929"/>
    </g>
    <g id="Group_6242" data-name="Group 6242" transform="translate(70.358 48.87)">
      <path id="Path_181" data-name="Path 181" d="M.159-2.054v-.024H.174v.063H.159v-.007l-.007.006H.144A.017.017,0,0,1,.13-2.021a.026.026,0,0,1-.005-.017A.026.026,0,0,1,.13-2.055a.017.017,0,0,1,.014-.007l.008,0,.007.006ZM.15-2.025a.008.008,0,0,0,.007,0,.015.015,0,0,0,0-.01.014.014,0,0,0,0-.009.008.008,0,0,0-.007,0,.008.008,0,0,0-.007,0,.016.016,0,0,0,0,.009.016.016,0,0,0,0,.01A.008.008,0,0,0,.15-2.025Z" transform="translate(-0.125 2.078)" fill="#292929"/>
    </g>
    <g id="Group_6243" data-name="Group 6243" transform="translate(70.449 48.87)">
      <path id="Path_182" data-name="Path 182" d="M.258-2.025a.008.008,0,0,0,.007,0,.015.015,0,0,0,0-.01.014.014,0,0,0,0-.009.008.008,0,0,0-.007,0,.009.009,0,0,0-.008,0,.016.016,0,0,0,0,.009.016.016,0,0,0,0,.01A.009.009,0,0,0,.258-2.025Zm-.01-.029L.255-2.06l.008,0a.017.017,0,0,1,.014.007.027.027,0,0,1,.005.017.027.027,0,0,1-.005.017.016.016,0,0,1-.014.007H.255L.248-2.022v.007H.234v-.063H.248Z" transform="translate(-0.234 2.078)" fill="#292929"/>
    </g>
    <g id="Group_6244" data-name="Group 6244" transform="translate(70.502 48.887)">
      <path id="Path_183" data-name="Path 183" d="M.031-1.5H.046l.012.031L.068-1.5H.083l-.019.05a.021.021,0,0,1-.007.01.015.015,0,0,1-.01,0H.039v-.009H.048a.007.007,0,0,0,0,0h0Z" transform="translate(-0.031 1.5)" fill="#292929"/>
    </g>
    <g id="Group_6245" data-name="Group 6245" transform="translate(70.588 48.887)">
      <path id="Path_184" data-name="Path 184" d="M.178-1.529v.011l-.009,0H.155a0,0,0,0,0,0,0,0,0,0,0,0,0,0H.163a.031.031,0,0,1,.015,0,.012.012,0,0,1,0,.01.012.012,0,0,1-.006.011.029.029,0,0,1-.016,0H.151l-.009,0V-1.5l.008,0H.166a0,0,0,0,0,0,0,0,0,0,0,0,0,0H.158a.024.024,0,0,1-.014,0,.012.012,0,0,1,0-.01.012.012,0,0,1,0-.01.026.026,0,0,1,.015,0H.178Z" transform="translate(-0.141 1.531)" fill="#292929"/>
    </g>
    <g id="Group_6246" data-name="Group 6246" transform="translate(70.64 48.87)">
      <path id="Path_185" data-name="Path 185" d="M.28-2.043v.027H.265v-.021a.051.051,0,0,0,0-.008.016.016,0,0,0,0,0l0,0h0a.009.009,0,0,0-.008,0,.016.016,0,0,0,0,.009v.022H.234v-.063H.249v.024L.256-2.06l.008,0a.015.015,0,0,1,.012,0,.021.021,0,0,1,0,.014Z" transform="translate(-0.234 2.078)" fill="#292929"/>
    </g>
    <g id="Group_6247" data-name="Group 6247" transform="translate(70.695 48.887)">
      <path id="Path_186" data-name="Path 186" d="M.149-1.505H.142a0,0,0,0,0,0,0,0,0,0,0,0,0,0H.146a.008.008,0,0,0,.007,0,.01.01,0,0,0,0-.008H.149ZM.17-1.511v.026H.156v-.007a.017.017,0,0,1-.007.006H.141a.016.016,0,0,1-.011,0,.015.015,0,0,1,0-.011A.012.012,0,0,1,.13-1.51a.031.031,0,0,1,.017,0H.156a0,0,0,0,0,0,0l-.008,0H.136l-.007,0v-.011l.009,0H.147a.026.026,0,0,1,.017,0,.019.019,0,0,1,.006.016Z" transform="translate(-0.125 1.531)" fill="#292929"/>
    </g>
    <g id="Group_6248" data-name="Group 6248" transform="translate(70.751 48.887)">
      <path id="Path_187" data-name="Path 187" d="M.178-1.529v.011l-.009,0H.155a0,0,0,0,0,0,0,0,0,0,0,0,0,0H.163a.031.031,0,0,1,.015,0,.012.012,0,0,1,0,.01.012.012,0,0,1-.006.011.029.029,0,0,1-.016,0H.151l-.009,0V-1.5l.008,0H.166a0,0,0,0,0,0,0,0,0,0,0,0,0,0H.158a.024.024,0,0,1-.014,0,.012.012,0,0,1,0-.01.012.012,0,0,1,0-.01.026.026,0,0,1,.015,0H.178Z" transform="translate(-0.141 1.531)" fill="#292929"/>
    </g>
    <g id="Group_6249" data-name="Group 6249" transform="translate(70.803 48.87)">
      <path id="Path_188" data-name="Path 188" d="M.28-2.043v.027H.265v-.021a.051.051,0,0,0,0-.008.016.016,0,0,0,0,0l0,0h0a.009.009,0,0,0-.008,0,.016.016,0,0,0,0,.009v.022H.234v-.063H.249v.024L.256-2.06l.008,0a.015.015,0,0,1,.012,0,.021.021,0,0,1,0,.014Z" transform="translate(-0.234 2.078)" fill="#292929"/>
    </g>
    <g id="Group_6250" data-name="Group 6250" transform="translate(70.859 48.887)">
      <path id="Path_189" data-name="Path 189" d="M.149-1.505H.142a0,0,0,0,0,0,0,0,0,0,0,0,0,0H.146a.008.008,0,0,0,.007,0,.01.01,0,0,0,0-.008H.149ZM.17-1.511v.026H.156v-.007a.017.017,0,0,1-.007.006H.141a.016.016,0,0,1-.011,0,.015.015,0,0,1,0-.011A.012.012,0,0,1,.13-1.51a.031.031,0,0,1,.017,0H.156a0,0,0,0,0,0,0l-.008,0H.136l-.007,0v-.011l.009,0H.147a.026.026,0,0,1,.017,0,.019.019,0,0,1,.006.016Z" transform="translate(-0.125 1.531)" fill="#292929"/>
    </g>
    <g id="Group_6251" data-name="Group 6251" transform="translate(70.918 48.887)">
      <path id="Path_190" data-name="Path 190" d="M.28-1.512v.027H.265v-.021a.046.046,0,0,0,0-.008.016.016,0,0,0,0,0l0,0h0a.009.009,0,0,0-.008,0,.016.016,0,0,0,0,.009v.022H.234V-1.53H.249v.007l.007-.006.008,0a.015.015,0,0,1,.012,0,.021.021,0,0,1,0,.014Z" transform="translate(-0.234 1.531)" fill="#292929"/>
    </g>
    <g id="Group_6252" data-name="Group 6252" transform="translate(70.976 48.87)">
      <path id="Path_191" data-name="Path 191" d="M.234-2.078H.249v.034l.017-.017H.282L.26-2.04l.024.025H.266L.249-2.034v.019H.234Z" transform="translate(-0.234 2.078)" fill="#292929"/>
    </g>
    <g id="Group_6253" data-name="Group 6253" transform="translate(71.057 48.887)">
      <path id="Path_192" data-name="Path 192" d="M.178-1.529v.011l-.009,0H.155a0,0,0,0,0,0,0,0,0,0,0,0,0,0H.163a.031.031,0,0,1,.015,0,.012.012,0,0,1,0,.01.012.012,0,0,1-.006.011.029.029,0,0,1-.016,0H.151l-.009,0V-1.5l.008,0H.166a0,0,0,0,0,0,0,0,0,0,0,0,0,0H.158a.024.024,0,0,1-.014,0,.012.012,0,0,1,0-.01.012.012,0,0,1,0-.01.026.026,0,0,1,.015,0H.178Z" transform="translate(-0.141 1.531)" fill="#292929"/>
    </g>
    <g id="Group_6254" data-name="Group 6254" transform="translate(71.109 48.87)">
      <path id="Path_193" data-name="Path 193" d="M.234-2.061H.249v.045H.234Zm0-.017H.249v.012H.234Z" transform="translate(-0.234 2.078)" fill="#292929"/>
    </g>
    <g id="Group_6255" data-name="Group 6255" transform="translate(71.137 48.887)">
      <path id="Path_194" data-name="Path 194" d="M.28-1.512v.027H.265v-.021a.046.046,0,0,0,0-.008.016.016,0,0,0,0,0l0,0h0a.009.009,0,0,0-.008,0,.016.016,0,0,0,0,.009v.022H.234V-1.53H.249v.007l.007-.006.008,0a.015.015,0,0,1,.012,0,.021.021,0,0,1,0,.014Z" transform="translate(-0.234 1.531)" fill="#292929"/>
    </g>
    <g id="Group_6256" data-name="Group 6256" transform="translate(71.193 48.887)">
      <path id="Path_195" data-name="Path 195" d="M.159-1.493l-.007.006-.008,0A.017.017,0,0,1,.13-1.492a.025.025,0,0,1-.005-.017A.026.026,0,0,1,.13-1.525a.017.017,0,0,1,.014-.007l.008,0,.007.006V-1.53H.174v.041a.02.02,0,0,1-.007.017.03.03,0,0,1-.02.006H.138l-.008,0v-.011l.007,0H.145a.015.015,0,0,0,.01,0,.014.014,0,0,0,0-.01ZM.15-1.521a.008.008,0,0,0-.007,0,.016.016,0,0,0,0,.009.015.015,0,0,0,0,.009.008.008,0,0,0,.007,0,.008.008,0,0,0,.007,0,.014.014,0,0,0,0-.009.014.014,0,0,0,0-.009A.008.008,0,0,0,.15-1.521Z" transform="translate(-0.125 1.531)" fill="#292929"/>
    </g>
    <g id="Group_6257" data-name="Group 6257" transform="translate(71.255 48.87)">
      <path id="Path_196" data-name="Path 196" d="M.28-2.043v.027H.265v-.021a.051.051,0,0,0,0-.008.016.016,0,0,0,0,0l0,0h0a.009.009,0,0,0-.008,0,.016.016,0,0,0,0,.009v.022H.234v-.063H.249v.024L.256-2.06l.008,0a.015.015,0,0,1,.012,0,.021.021,0,0,1,0,.014Z" transform="translate(-0.234 2.078)" fill="#292929"/>
    </g>
    <g id="Group_6258" data-name="Group 6258" transform="translate(70.047 48.953)">
      <path id="Path_197" data-name="Path 197" d="M.082-2.078v.009H.07a.005.005,0,0,0,0,0v0H.081v.01H.069v.035H.054V-2.05H.047v-.01H.054v0a.014.014,0,0,1,0-.011.019.019,0,0,1,.013,0Z" transform="translate(-0.047 2.078)" fill="#292929"/>
    </g>
    <g id="Group_6259" data-name="Group 6259" transform="translate(70.089 48.969)">
      <path id="Path_198" data-name="Path 198" d="M.268-1.518H.26a.011.011,0,0,0-.009,0,.015.015,0,0,0,0,.01v.021H.234V-1.53H.249v.008l.006-.006.009,0h0Z" transform="translate(-0.234 1.531)" fill="#292929"/>
    </g>
    <g id="Group_6260" data-name="Group 6260" transform="translate(70.126 48.969)">
      <path id="Path_199" data-name="Path 199" d="M.15-1.521a.01.01,0,0,0-.008,0,.017.017,0,0,0,0,.01.019.019,0,0,0,0,.01.009.009,0,0,0,.008,0,.008.008,0,0,0,.007,0,.017.017,0,0,0,0-.01.015.015,0,0,0,0-.01A.009.009,0,0,0,.15-1.521Zm0-.01a.025.025,0,0,1,.018.007.022.022,0,0,1,.007.017.023.023,0,0,1-.007.017.026.026,0,0,1-.018.006A.026.026,0,0,1,.131-1.49a.023.023,0,0,1-.006-.017.023.023,0,0,1,.006-.017A.025.025,0,0,1,.15-1.531Z" transform="translate(-0.125 1.531)" fill="#292929"/>
    </g>
    <g id="Group_6261" data-name="Group 6261" transform="translate(70.186 48.969)">
      <path id="Path_200" data-name="Path 200" d="M.276-1.523a.017.017,0,0,1,.007-.006l.008,0a.015.015,0,0,1,.012,0,.021.021,0,0,1,0,.014v.027H.292v-.024h0v0a.012.012,0,0,0,0-.007.005.005,0,0,0,0,0,.007.007,0,0,0-.006,0,.017.017,0,0,0,0,.01v.022H.263v-.024a.019.019,0,0,0,0-.009,0,0,0,0,0,0,0,.007.007,0,0,0-.007,0,.016.016,0,0,0,0,.009v.022H.234V-1.53H.249v.007l.006-.006.008,0,.008,0a.017.017,0,0,1,.006.006Z" transform="translate(-0.234 1.531)" fill="#292929"/>
    </g>
    <g id="Group_6262" data-name="Group 6262" transform="translate(70.295 48.957)">
      <path id="Path_201" data-name="Path 201" d="M.053-1.922v.013H.068v.01H.053v.019a.007.007,0,0,0,0,0H.067v.01H.054a.018.018,0,0,1-.012,0,.018.018,0,0,1,0-.012V-1.9H.031v-.01H.039v-.013Z" transform="translate(-0.031 1.922)" fill="#292929"/>
    </g>
    <g id="Group_6263" data-name="Group 6263" transform="translate(70.34 48.953)">
      <path id="Path_202" data-name="Path 202" d="M.28-2.043v.027H.265v-.021a.051.051,0,0,0,0-.008.016.016,0,0,0,0,0l0,0h0a.009.009,0,0,0-.008,0,.016.016,0,0,0,0,.009v.022H.234v-.063H.249v.024L.256-2.06l.008,0a.015.015,0,0,1,.012,0,.021.021,0,0,1,0,.014Z" transform="translate(-0.234 2.078)" fill="#292929"/>
    </g>
    <g id="Group_6264" data-name="Group 6264" transform="translate(70.396 48.969)">
      <path id="Path_203" data-name="Path 203" d="M.173-1.508v0H.14a.011.011,0,0,0,0,.008.014.014,0,0,0,.009,0H.161l.01,0v.011l-.01,0H.15A.026.026,0,0,1,.132-1.49a.022.022,0,0,1-.007-.017.022.022,0,0,1,.007-.017A.025.025,0,0,1,.15-1.531a.022.022,0,0,1,.017.007.022.022,0,0,1,.007.017Zm-.015,0a.009.009,0,0,0,0-.007.008.008,0,0,0-.007,0l-.007,0a.01.01,0,0,0,0,.007Z" transform="translate(-0.125 1.531)" fill="#292929"/>
    </g>
    <g id="Group_6265" data-name="Group 6265" transform="translate(70.484 48.955)">
      <path id="Path_204" data-name="Path 204" d="M.25-2H.267l.022.042V-2H.3v.06H.287L.265-1.981v.042H.25Z" transform="translate(-0.25 2)" fill="#292929"/>
    </g>
    <g id="Group_6266" data-name="Group 6266" transform="translate(70.549 48.969)">
      <path id="Path_205" data-name="Path 205" d="M.15-1.521a.01.01,0,0,0-.008,0,.017.017,0,0,0,0,.01.019.019,0,0,0,0,.01.009.009,0,0,0,.008,0,.008.008,0,0,0,.007,0,.017.017,0,0,0,0-.01.015.015,0,0,0,0-.01A.009.009,0,0,0,.15-1.521Zm0-.01a.025.025,0,0,1,.018.007.022.022,0,0,1,.007.017.023.023,0,0,1-.007.017.026.026,0,0,1-.018.006A.026.026,0,0,1,.131-1.49a.023.023,0,0,1-.006-.017.023.023,0,0,1,.006-.017A.025.025,0,0,1,.15-1.531Z" transform="translate(-0.125 1.531)" fill="#292929"/>
    </g>
    <g id="Group_6267" data-name="Group 6267" transform="translate(70.609 48.97)">
      <path id="Path_206" data-name="Path 206" d="M.219-1.472V-1.5H.233v.029a.005.005,0,0,0,0,0l0,0h0a.008.008,0,0,0,.007,0,.014.014,0,0,0,0-.009V-1.5H.264v.045H.249v-.007l-.007.006H.235a.015.015,0,0,1-.012,0,.021.021,0,0,1,0-.014Z" transform="translate(-0.219 1.5)" fill="#292929"/>
    </g>
    <g id="Group_6268" data-name="Group 6268" transform="translate(70.668 48.969)">
      <path id="Path_207" data-name="Path 207" d="M.28-1.512v.027H.265v-.021a.046.046,0,0,0,0-.008.016.016,0,0,0,0,0l0,0h0a.009.009,0,0,0-.008,0,.016.016,0,0,0,0,.009v.022H.234V-1.53H.249v.007l.007-.006.008,0a.015.015,0,0,1,.012,0,.021.021,0,0,1,0,.014Z" transform="translate(-0.234 1.531)" fill="#292929"/>
    </g>
    <g id="Group_6269" data-name="Group 6269" transform="translate(70.756 48.955)">
      <path id="Path_208" data-name="Path 208" d="M.25-2H.276a.027.027,0,0,1,.017.005A.019.019,0,0,1,.3-1.98a.018.018,0,0,1-.006.015.026.026,0,0,1-.017.005H.266v.021H.25Zm.016.011v.017H.274l.007,0a.009.009,0,0,0,0-.007.008.008,0,0,0,0-.006.01.01,0,0,0-.007,0Z" transform="translate(-0.25 2)" fill="#292929"/>
    </g>
    <g id="Group_6270" data-name="Group 6270" transform="translate(70.816 48.969)">
      <path id="Path_209" data-name="Path 209" d="M.268-1.518H.26a.011.011,0,0,0-.009,0,.015.015,0,0,0,0,.01v.021H.234V-1.53H.249v.008l.006-.006.009,0h0Z" transform="translate(-0.234 1.531)" fill="#292929"/>
    </g>
    <g id="Group_6271" data-name="Group 6271" transform="translate(70.853 48.969)">
      <path id="Path_210" data-name="Path 210" d="M.15-1.521a.01.01,0,0,0-.008,0,.017.017,0,0,0,0,.01.019.019,0,0,0,0,.01.009.009,0,0,0,.008,0,.008.008,0,0,0,.007,0,.017.017,0,0,0,0-.01.015.015,0,0,0,0-.01A.009.009,0,0,0,.15-1.521Zm0-.01a.025.025,0,0,1,.018.007.022.022,0,0,1,.007.017.023.023,0,0,1-.007.017.026.026,0,0,1-.018.006A.026.026,0,0,1,.131-1.49a.023.023,0,0,1-.006-.017.023.023,0,0,1,.006-.017A.025.025,0,0,1,.15-1.531Z" transform="translate(-0.125 1.531)" fill="#292929"/>
    </g>
    <g id="Group_6272" data-name="Group 6272" transform="translate(70.903 48.953)">
      <path id="Path_211" data-name="Path 211" d="M-.084-2.061H-.07v.044A.021.021,0,0,1-.074-2,.017.017,0,0,1-.087-2H-.094v-.009h0l.006,0a.011.011,0,0,0,0-.008Zm0-.017H-.07v.012H-.084Z" transform="translate(0.094 2.078)" fill="#292929"/>
    </g>
    <g id="Group_6273" data-name="Group 6273" transform="translate(70.938 48.969)">
      <path id="Path_212" data-name="Path 212" d="M.173-1.508v0H.14a.011.011,0,0,0,0,.008.014.014,0,0,0,.009,0H.161l.01,0v.011l-.01,0H.15A.026.026,0,0,1,.132-1.49a.022.022,0,0,1-.007-.017.022.022,0,0,1,.007-.017A.025.025,0,0,1,.15-1.531a.022.022,0,0,1,.017.007.022.022,0,0,1,.007.017Zm-.015,0a.009.009,0,0,0,0-.007.008.008,0,0,0-.007,0l-.007,0a.01.01,0,0,0,0,.007Z" transform="translate(-0.125 1.531)" fill="#292929"/>
    </g>
    <g id="Group_6274" data-name="Group 6274" transform="translate(70.994 48.969)">
      <path id="Path_213" data-name="Path 213" d="M.165-1.529v.012l-.006,0H.152a.013.013,0,0,0-.009,0,.013.013,0,0,0,0,.009.015.015,0,0,0,0,.01.014.014,0,0,0,.009,0H.159l.006,0v.012l-.007,0H.151A.028.028,0,0,1,.132-1.49a.022.022,0,0,1-.007-.017.022.022,0,0,1,.007-.017.027.027,0,0,1,.019-.007H.165Z" transform="translate(-0.125 1.531)" fill="#292929"/>
    </g>
    <g id="Group_6275" data-name="Group 6275" transform="translate(71.04 48.957)">
      <path id="Path_214" data-name="Path 214" d="M.053-1.922v.013H.068v.01H.053v.019a.007.007,0,0,0,0,0H.067v.01H.054a.018.018,0,0,1-.012,0,.018.018,0,0,1,0-.012V-1.9H.031v-.01H.039v-.013Z" transform="translate(-0.031 1.922)" fill="#292929"/>
    </g>
  </g>
</svg>
