<svg id="export-solid" xmlns="http://www.w3.org/2000/svg" width="31" height="28" viewBox="0 0 31 28">
  <path id="Path_5" data-name="Path 5" d="M17,22a1,1,0,0,1,1-1h8V6a2,2,0,0,0-2-2H10.87L4,10.86V30a2,2,0,0,0,2,2H24a2,2,0,0,0,2-2V23H18A1,1,0,0,1,17,22ZM12,12H6v-.32L11.69,6H12Z" transform="translate(-4 -4)" fill="#292929"/>
  <path id="Path_6" data-name="Path 6" d="M29.32,16.35a1,1,0,0,0-1.41,1.41L31.16,21H26v2h5.19l-3.28,3.28a1,1,0,1,0,1.41,1.41L35,22Z" transform="translate(-4 -4)" fill="#292929"/>
</svg>
