<svg xmlns="http://www.w3.org/2000/svg" width="30" height="30" viewBox="0 0 30 30">
  <g id="FAQ" opacity="0.5">
    <path id="Path_1" data-name="Path 1" d="M30,15A15,15,0,1,1,15,0,15,15,0,0,1,30,15ZM12.319,11.312H9.844c-.057-3.536,2.681-4.749,5.167-4.749,2.619,0,5.012,1.369,5.012,4.2,0,2.025-1.191,2.989-2.333,3.857-1.382,1.048-1.893,1.44-1.893,2.787v.666H13.344l-.013-.868c-.071-1.738.928-2.808,2.19-3.726,1.106-.832,1.809-1.38,1.809-2.571a2.178,2.178,0,0,0-2.464-2.19,2.392,2.392,0,0,0-2.547,2.595Zm2.346,12.081a1.756,1.756,0,1,1,0-3.5,1.759,1.759,0,1,1,0,3.5Z" fill="#292929" fill-rule="evenodd"/>
  </g>
</svg>
