<svg xmlns="http://www.w3.org/2000/svg" width="23.333" height="28" viewBox="0 0 23.333 28">
  <path id="Gender_Bl_" data-name="Gender (Bl)" d="M18.333,0V2.333H21.35L18.885,4.8A6.962,6.962,0,0,0,8.79,7.01a6.992,6.992,0,0,0-.957,13.884v2.438h-3.5v2.333h3.5V28h2.333V25.667h3.5V23.333h-3.5V20.895a6.949,6.949,0,0,0,4.861-3.4A6.988,6.988,0,0,0,20.535,6.448L23,3.983V7h2.333V0Zm-3.5,15.167a4.673,4.673,0,0,1-4.577-3.775,2.759,2.759,0,0,0-2.372-.077,6.993,6.993,0,0,0,4.586,5.761A4.6,4.6,0,0,1,9,18.667a4.667,4.667,0,1,1,4.575-5.584,2.593,2.593,0,0,0,2.372.09,6.993,6.993,0,0,0-4.6-5.753,4.661,4.661,0,1,1,3.487,7.747Z" transform="translate(-2)" fill="#073763"/>
</svg>
