<svg xmlns="http://www.w3.org/2000/svg" width="37.793" height="28" viewBox="0 0 37.793 28">
  <g id="Hamburger" transform="translate(-5.5 -13)">
    <path id="Path_55831" data-name="Path 55831" d="M41.26,16.566H7.533a1.533,1.533,0,1,1,0-3.066H41.26a1.533,1.533,0,0,1,0,3.066Z" transform="translate(0 0)" fill="#939393" stroke="#939393" stroke-width="1"/>
    <path id="Path_55832" data-name="Path 55832" d="M41.26,25.566H7.533a1.533,1.533,0,1,1,0-3.066H41.26a1.533,1.533,0,0,1,0,3.066Z" transform="translate(0 2.967)" fill="#939393" stroke="#939393" stroke-width="1"/>
    <path id="Path_55833" data-name="Path 55833" d="M41.26,34.566H7.533a1.533,1.533,0,1,1,0-3.066H41.26a1.533,1.533,0,1,1,0,3.066Z" transform="translate(0 5.934)" fill="#939393" stroke="#939393" stroke-width="1"/>
  </g>
</svg>
