<svg xmlns="http://www.w3.org/2000/svg" width="21.866" height="22.005" viewBox="0 0 21.866 22.005">
  <g id="ID" transform="translate(-2 -1)">
    <path id="Path_178" data-name="Path 178" d="M25.3,17.23a4.214,4.214,0,0,0-2.915,7.289L21.1,26.089l.6,2.392,2.425-2.955a4.148,4.148,0,0,0,2.352,0l2.425,2.955.6-2.392-1.285-1.57A4.214,4.214,0,0,0,25.29,17.23Zm0,7.077a2.856,2.856,0,1,1,2.9-2.856A2.856,2.856,0,0,1,25.3,24.306Z" transform="translate(-6.427 -5.476)" fill="#292929"/>
    <path id="Path_179" data-name="Path 179" d="M20.553,10.969A4.969,4.969,0,0,1,15.583,6H3.325A1.325,1.325,0,0,0,2,7.325V20.577A1.325,1.325,0,0,0,3.325,21.9h9.939l.378-.464.616-.755A5.525,5.525,0,1,1,23.2,14.2V10.221A4.943,4.943,0,0,1,20.553,10.969Zm-8.614,7.355H5.313v-1.06h6.626Zm.663-4.638H5.313v-1.06H12.6Zm3.976-2.65H5.313V9.976H16.577Z" transform="translate(0 -1.687)" fill="#292929"/>
    <path id="Path_180" data-name="Path 180" d="M31.626,4.313A3.313,3.313,0,1,1,28.313,1,3.313,3.313,0,0,1,31.626,4.313Z" transform="translate(-7.76)" fill="#292929"/>
  </g>
</svg>
