<svg xmlns="http://www.w3.org/2000/svg" width="25" height="27" viewBox="0 0 25 27">
  <path id="Import" d="M16.516,27a2,2,0,0,1-2-2V18.676a2,2,0,0,1,2-2H23a2,2,0,0,1,2,2V25a2,2,0,0,1-2,2Zm3.213-2.587,2.644-3.072H20.979V19.263H18.47v2.079H17.143Zm-5.978-.59H2a2,2,0,0,1-2-2V2A2,2,0,0,1,2,0H18.161a2,2,0,0,1,2,2V15.882H15.71a2,2,0,0,0-2,2v5.53a2.023,2.023,0,0,0,.042.41h0ZM3.427,17.669H13V16.478H3.427Zm0-3.97H16.734V12.507H3.427Zm0-3.971H16.734V8.536H3.427Zm0-3.971H16.734V4.567H3.427Z" fill="#292929"/>
</svg>
