<svg xmlns="http://www.w3.org/2000/svg" width="31.805" height="29.365" viewBox="0 0 31.805 29.365">
  <path id="Linking_social_secretary_to_holiday_code_C_" data-name="Linking social secretary to holiday code (C)" d="M20.98,23.955a5.413,5.413,0,1,1,5.41,5.41A5.417,5.417,0,0,1,20.98,23.955Zm3.892-.407L23.2,25.214a.594.594,0,0,0-.175.428.576.576,0,0,0,.175.419l1.082,1.086a.6.6,0,0,0,.847,0L26.8,25.476a.6.6,0,0,0,0-.851l-.3-.3.265-.262.3.3a.613.613,0,0,0,.848,0l1.67-1.671a.606.606,0,0,0,0-.851L28.5,20.759a.6.6,0,0,0-.847,0l-1.671,1.672a.6.6,0,0,0,0,.848l.306.307-.27.266-.3-.3a.6.6,0,0,0-.846,0Zm-3.544,4.438H.433A.439.439,0,0,1,0,27.553V24.911a.438.438,0,0,1,.433-.433H19.916a6.354,6.354,0,0,0,1.413,3.506v0Zm3.192-1.524-.635-.634a.347.347,0,0,1,0-.5l1.1-1.1a.356.356,0,0,1,.248-.1.371.371,0,0,1,.252.1l.081.082-.36.355a.3.3,0,0,0,0,.424l.049.054a.3.3,0,0,0,.424,0l.36-.361.076.082a.346.346,0,0,1,.1.25.333.333,0,0,1-.1.244l-1.1,1.1a.356.356,0,0,1-.249.1A.346.346,0,0,1,24.521,26.463Zm2.785-2.783-.082-.082.356-.356a.3.3,0,0,0,0-.424l-.053-.049a.3.3,0,0,0-.419,0l-.356.356-.081-.08a.356.356,0,0,1-.1-.254.34.34,0,0,1,.1-.242l1.1-1.1a.354.354,0,0,1,.5,0l.63.635a.346.346,0,0,1,0,.5l-1.1,1.1a.361.361,0,0,1-.249.1A.348.348,0,0,1,27.305,23.68Zm-25.54-.21a.44.44,0,0,1-.312-.134.412.412,0,0,1-.122-.3v-.005q.041-1.683.083-3.367.038-1.508.075-3.016v-.043q.036-1.449.072-2.9c.078-3.146.25-4.741.512-4.741H4.8A28.951,28.951,0,0,1,5.316,13.9l.07,2.86,0,.119q.038,1.489.074,2.979.04,1.589.079,3.179a.415.415,0,0,1-.173.342.455.455,0,0,1-.218.089l-.043,0Zm15.548-1.089V18.744h-.254v3.637a.585.585,0,1,1-1.17,0V21.248h.158a.835.835,0,0,0,.83-.838V18.349a.834.834,0,0,0-.785-.835v-.059a.869.869,0,0,0-.506-.789c.047-.237.086-.442.119-.617s.063-.324.088-.449c.135-.707.135-.707.144-.795a.159.159,0,0,1,0-.026l0-.023c-.25.715-.59,1.664-.86,2.408h.145a.291.291,0,0,1,.287.292v.638h.531a.256.256,0,0,1,.254.256V20.41a.257.257,0,0,1-.254.257H12.93a.255.255,0,0,1-.254-.257V18.349a.255.255,0,0,1,.254-.256h.532v-.638a.294.294,0,0,1,.23-.285H13.7a.817.817,0,0,1,.129-.006h.221c.005-.022.826-2.287,1.148-3.23.246-.719.611-1.055,1.147-1.055h1.691c.519,0,.9.337,1.127,1,.267.786.781,2.211,1.028,2.894l.062.178c.041.112.063.174.065.176a.488.488,0,1,1-.916.336c-.006-.014-.576-1.584-.971-2.709a.216.216,0,0,1,.006.047c.01.086.01.086.252,1.34.1.514.238,1.242.437,2.273a.289.289,0,0,1-.057.227.284.284,0,0,1-.209.1h-.375v3.637a.585.585,0,1,1-1.17,0Zm-3.152-3c0,.421.142.626.437.626s.441-.205.441-.626-.147-.624-.441-.624S14.161,18.965,14.161,19.385Zm-1.276,0c0,.421.145.626.438.626s.439-.205.439-.626-.143-.624-.439-.624S12.885,18.965,12.885,19.385Zm2.78-.36v.963h.179V18.761h-.01l-.429.19v.176l.26-.1v0Zm-1.627-.931h.9v-.349h-.224a.479.479,0,0,1-.2.045.46.46,0,0,1-.2-.045h-.281Zm-.965,4.279V21.248h1.185v1.125a.593.593,0,1,1-1.185,0Zm-1.444,0V20.736a.925.925,0,0,0,.486-.162.838.838,0,0,0,.7.668v1.131a.593.593,0,1,1-1.185,0Zm-1.424.16V19.76h-.192v2.774a.433.433,0,1,1-.867,0v-5.61l-1.111-.429a.353.353,0,0,1-.225-.277l-.257-1.455a.352.352,0,0,1,.06-.272.364.364,0,0,1,.235-.152c.019,0,.04,0,.06,0a.359.359,0,0,1,.355.3l.222,1.254.969.371h1.629a.865.865,0,0,1,.857.859l.012,2.684a.361.361,0,0,1-.1.257.352.352,0,0,1-.256.108.36.36,0,0,1-.365-.365l-.014-2.679a.075.075,0,0,0-.074-.076.078.078,0,0,0-.076.076l.008,3.452v1.958a.434.434,0,1,1-.868,0Zm4.136-3.148c0-.305.085-.452.257-.452s.256.145.256.452-.082.456-.256.456S14.342,19.691,14.342,19.385Zm-1.277,0c0-.305.084-.452.258-.452s.256.145.256.452-.084.456-.256.456S13.065,19.691,13.065,19.385Zm9.449-.608.126-5.07c.078-3.146.25-4.741.512-4.741h2.724a29.015,29.015,0,0,1,.517,4.934l.076,3.058v.007l.014.58c-.056,0-.115,0-.187,0a6.35,6.35,0,0,0-3.78,1.235h0Zm-10.005-1.15c0-.028,0-.141,0-.255s0-.226,0-.254A1.428,1.428,0,0,0,11.63,15.8V13.76L9.7,12.647a.485.485,0,0,1-.2-.21L8.64,10.709a.5.5,0,0,1,.441-.723.489.489,0,0,1,.439.275l.8,1.6,1.775,1.022h3.036a2.471,2.471,0,0,0-.449.818v0l0,.012c-.015.05-.035.1-.054.159h-.372v2.713h-.5a.867.867,0,0,0-.864.869v.059a.815.815,0,0,0-.374.113l0,0Zm-3.127-2a.953.953,0,0,1-.205-.586.939.939,0,1,1,1.877,0,.955.955,0,0,1-.264.656.941.941,0,0,1-.676.285A.931.931,0,0,1,9.382,15.623Zm6.793-4.088a1.012,1.012,0,1,1,1.012,1.021A1.017,1.017,0,0,1,16.175,11.535Zm-4.248-.076a1.024,1.024,0,1,1,1.025,1.035A1.031,1.031,0,0,1,11.927,11.459ZM.944,7.934A.439.439,0,0,1,.511,7.5V5.8a.426.426,0,0,1,.214-.374l.015-.008L13.118.343l.23-.115.23-.116A.916.916,0,0,1,13.916,0c.05.007.078.01.1.012A.2.2,0,0,1,14.1.034l.043.018L14.4.184l.006,0,.521.261L27.169,5.426a.433.433,0,0,1,.214.374V7.5a.436.436,0,0,1-.1.274l-.059.059a.453.453,0,0,1-.274.1ZM13.692,2.506a2.054,2.054,0,0,0-1.309.811,1.9,1.9,0,0,0,1.574,2.965,1.807,1.807,0,0,0,.637-.113,1.949,1.949,0,0,0,1.247-1.734.06.06,0,0,0,0-.015s0-.013,0-.032a1.928,1.928,0,0,0-1.327-1.808,1.737,1.737,0,0,0-.452-.09H13.91A1.35,1.35,0,0,0,13.692,2.506Z" fill="#61bfb5"/>
</svg>
