<svg xmlns="http://www.w3.org/2000/svg" width="86.413" height="87" viewBox="0 0 86.413 87">
  <path id="Manage_holiday" data-name="Manage holiday" d="M65.939,83.043V58.665h-1.7V83.043a3.954,3.954,0,1,1-7.907,0V75.468h1.05a5.625,5.625,0,0,0,5.617-5.617V56.036a5.613,5.613,0,0,0-5.308-5.607v-.385a5.853,5.853,0,0,0-3.4-5.3l.184-.958c.412-2.133.744-3.842,1.016-5.218,1.1-5.668,1.1-5.668,1.165-6.272l0-.045c.01-.08.02-.177.037-.3C54.839,37.208,52.257,44.325,50.88,48.1h.973A1.947,1.947,0,0,1,53.8,50.043V54.31h3.58a1.727,1.727,0,0,1,1.728,1.725V69.851a1.728,1.728,0,0,1-1.728,1.725H36.348a1.73,1.73,0,0,1-1.728-1.725V56.036a1.729,1.729,0,0,1,1.728-1.725h3.58V50.043a1.956,1.956,0,0,1,1.554-1.906H41.5l.03-.006a4.5,4.5,0,0,1,.734-.037c.138,0,.3,0,.5,0h.1c.272,0,.608,0,1.019,0,.052-.135,5.574-15.338,7.761-21.661,1.658-4.81,4.117-7.047,7.734-7.047H70.792c3.527,0,6.09,2.254,7.616,6.7,2.333,6.774,7.768,21.661,7.805,21.758a3.3,3.3,0,0,1-6.191,2.264C80,50.049,76.155,39.536,73.475,31.95c.016.136.027.231.036.319.065.6.065.6,1.95,10.322l.659,3.389c.55,2.84,1.22,6.29,2.034,10.5a1.839,1.839,0,0,1-1.8,2.181H73.843V70.1a8.517,8.517,0,0,0-1.35,15.925,3.954,3.954,0,0,1-6.554-2.981ZM43.82,54.31h6.093V51.989H48.4a3.322,3.322,0,0,1-1.346.289,3.238,3.238,0,0,1-1.343-.289H43.82ZM37.3,82.993V75.465h8.012v7.528a4.006,4.006,0,1,1-8.012,0Zm-9.736,0V72.017a6.154,6.154,0,0,0,3.273-1.08A5.612,5.612,0,0,0,35.57,75.41v7.583a4,4,0,1,1-8.005,0Zm-9.633,1.069V65.5l0-.017v-.006H16.66c0,.023,0,.023,0,.023s0,.006,0,18.565a2.938,2.938,0,1,1-5.876,0V46.476L3.3,43.613a2.462,2.462,0,0,1-1.534-1.856L.038,32A2.453,2.453,0,0,1,2.02,29.16a2.394,2.394,0,0,1,.418-.037,2.454,2.454,0,0,1,2.419,2.02l1.484,8.4,6.537,2.493h11a5.8,5.8,0,0,1,5.788,5.761l.091,17.97a2.454,2.454,0,0,1-2.435,2.461h-.013a2.452,2.452,0,0,1-2.445-2.435l-.092-17.973a.509.509,0,0,0-.511-.506.516.516,0,0,0-.51.513l.052,23.12v13.12a2.934,2.934,0,1,1-5.869,0ZM75.7,86.57a.4.4,0,0,1-.382-.315l-.284-2.019a5.944,5.944,0,0,1-1.293-.754l-1.9.763a.388.388,0,0,1-.471-.164l-1.527-2.639a.381.381,0,0,1,.086-.493l1.618-1.266a5.775,5.775,0,0,1-.056-.754,5.639,5.639,0,0,1,.056-.743l-1.618-1.266a.378.378,0,0,1-.086-.49l1.527-2.642a.388.388,0,0,1,.471-.164l1.9.763a6.057,6.057,0,0,1,1.293-.753l.282-2.02a.4.4,0,0,1,.385-.326h3.057a.4.4,0,0,1,.382.316l.284,2.02a5.675,5.675,0,0,1,1.293.753l1.9-.763a.388.388,0,0,1,.471.164l1.53,2.639a.385.385,0,0,1-.089.491l-1.618,1.267a5.753,5.753,0,0,1,.056.753,5.623,5.623,0,0,1-.056.744l1.618,1.263a.388.388,0,0,1,.089.493l-1.53,2.642a.39.39,0,0,1-.471.165l-1.9-.764a6.036,6.036,0,0,1-1.289.753l-.289,2.017a.391.391,0,0,1-.382.328Zm-1.129-7.64a2.658,2.658,0,1,0,2.659-2.659A2.656,2.656,0,0,0,74.573,78.93ZM33.487,51.2c0-.365-.017-3.044-.017-3.426a9.6,9.6,0,0,0-5.908-8.808V25.285L14.516,17.826a3.317,3.317,0,0,1-1.323-1.4L7.359,4.84A3.345,3.345,0,0,1,8.84.359,3.282,3.282,0,0,1,10.336,0a3.327,3.327,0,0,1,2.988,1.839L18.7,12.533,30.68,19.379H51.174a16.5,16.5,0,0,0-3.01,5.479c-.121.346-.249.714-.415,1.2H45.241V44.212H41.873a5.837,5.837,0,0,0-5.83,5.831v.385a5.539,5.539,0,0,0-2.556.777Zm-21.1-13.427A6.266,6.266,0,0,1,11,33.826a6.329,6.329,0,1,1,10.871,4.4,6.326,6.326,0,0,1-9.492-.453ZM58.26,10.387a6.827,6.827,0,1,1,6.826,6.83A6.836,6.836,0,0,1,58.26,10.387ZM29.568,9.878a6.916,6.916,0,1,1,6.913,6.915A6.923,6.923,0,0,1,29.568,9.878Z" fill="#073763"/>
</svg>
