<svg xmlns="http://www.w3.org/2000/svg" width="30.291" height="30.286" viewBox="0 0 30.291 30.286">
  <path id="Marital_status_Bl_" data-name="Marital status (Bl)" d="M0,18.948A11.338,11.338,0,1,1,11.338,30.286,11.337,11.337,0,0,1,0,18.948Zm2.519,0a8.818,8.818,0,1,0,8.818-8.819A8.818,8.818,0,0,0,2.519,18.948ZM7.81,13.72a6.3,6.3,0,0,1,2.381-.957,8.818,8.818,0,0,0,7.394,7.395,6.309,6.309,0,0,1-.957,2.381A11.338,11.338,0,0,1,7.81,13.72Zm17.447,5.153c0-.454-.063-.895-.063-1.336a8.819,8.819,0,0,0,1.9-9.676A8.607,8.607,0,0,0,22.423,3.2a8.82,8.82,0,0,0-9.688,1.89H11.4a14.23,14.23,0,0,0-1.953.076A11.329,11.329,0,1,1,25.12,20.825,14.246,14.246,0,0,0,25.258,18.873Z" transform="translate(0 0)" fill="#073763"/>
</svg>
