<svg xmlns="http://www.w3.org/2000/svg" width="29.388" height="15.429" viewBox="0 0 29.388 15.429">
  <path id="Meal_voucher_Bl_" data-name="Meal voucher (Bl)" d="M32.863,22.27a.526.526,0,0,0,.525-.525v-.771A3.678,3.678,0,0,0,29.714,17.3H11.462v2.01a.525.525,0,0,1-1.05,0V17.3H7.673A3.678,3.678,0,0,0,4,20.973v.771a.526.526,0,0,0,.525.525,2.745,2.745,0,1,1,0,5.489A.526.526,0,0,0,4,28.284v.771a3.677,3.677,0,0,0,3.673,3.673h2.739c0-.506,0-1.507,0-2.01a.525.525,0,1,1,1.05,0c0,.5,0,1.51,0,2.01H29.714a3.678,3.678,0,0,0,3.673-3.673v-.771a.526.526,0,0,0-.525-.525,2.745,2.745,0,1,1,0-5.489ZM16.238,26.924a.523.523,0,0,1,.5-.178,24.875,24.875,0,0,0,9.241,0,.519.519,0,0,1,.583.708,5.471,5.471,0,0,1-5.206,3.07,5.476,5.476,0,0,1-5.206-3.07.539.539,0,0,1,.084-.53Zm.021-2.026a.529.529,0,0,1,.74-.058l.294.252a1.383,1.383,0,0,0,1.485.2,2.1,2.1,0,0,1,2.02.121,1.067,1.067,0,0,0,1.128,0,2.1,2.1,0,0,1,2.02-.121,1.385,1.385,0,0,0,1.485-.2l.289-.252a.527.527,0,1,1,.687.8l-.294.252a2.428,2.428,0,0,1-2.613.352c-.754-.389-1.383.469-2.141.383-.748.087-1.388-.771-2.136-.383a2.428,2.428,0,0,1-2.613-.352l-.294-.252a.524.524,0,0,1-.058-.74Zm9.971-.572a24.715,24.715,0,0,1-9.735,0,.523.523,0,0,1-.425-.514c0-2.377,2.372-4.308,5.29-4.308s5.3,1.931,5.3,4.308a.523.523,0,0,1-.425.514ZM10.938,21.089a.526.526,0,0,1,.525.525V23.86a.525.525,0,0,1-1.05,0V21.614A.526.526,0,0,1,10.938,21.089Zm0,7.851a.526.526,0,0,1-.525-.525V26.169a.525.525,0,0,1,1.05,0v2.246a.526.526,0,0,1-.525.525Z" transform="translate(-4 -17.3)" fill="#073763"/>
</svg>
