<svg xmlns="http://www.w3.org/2000/svg" width="20.081" height="20.081" viewBox="0 0 20.081 20.081">
  <path id="phone" d="M20.08,15.859a4.707,4.707,0,0,1-.143,1.006,5.66,5.66,0,0,1-.3.977,3.825,3.825,0,0,1-1.74,1.512,5.529,5.529,0,0,1-2.653.727,5.692,5.692,0,0,1-.756-.05,5.783,5.783,0,0,1-.82-.178q-.449-.129-.67-.207t-.792-.292q-.57-.214-.7-.257a12.911,12.911,0,0,1-2.5-1.184,21.5,21.5,0,0,1-3.765-3.081,21.5,21.5,0,0,1-3.081-3.765,12.932,12.932,0,0,1-1.184-2.5q-.043-.128-.257-.7T.435,7.081Q.356,6.86.228,6.411a5.911,5.911,0,0,1-.178-.82A5.561,5.561,0,0,1,0,4.835,5.531,5.531,0,0,1,.727,2.182,3.825,3.825,0,0,1,2.239.442a5.681,5.681,0,0,1,.977-.3A4.7,4.7,0,0,1,4.221,0a.8.8,0,0,1,.3.043q.257.085.756,1.084.157.271.428.77t.5.906q.228.407.442.763.043.057.249.356a4.061,4.061,0,0,1,.307.506.921.921,0,0,1,.1.407,1.183,1.183,0,0,1-.407.713,6.967,6.967,0,0,1-.884.784,8.606,8.606,0,0,0-.884.756,1.086,1.086,0,0,0-.407.656.962.962,0,0,0,.071.321q.071.192.121.292t.2.342q.15.243.164.271a14.967,14.967,0,0,0,2.482,3.352A14.967,14.967,0,0,0,11.11,14.8q.028.015.271.164t.342.2a2.994,2.994,0,0,0,.292.121.981.981,0,0,0,.321.071,1.086,1.086,0,0,0,.656-.407,8.606,8.606,0,0,0,.756-.884,6.967,6.967,0,0,1,.784-.884,1.183,1.183,0,0,1,.713-.407.931.931,0,0,1,.407.1,3.972,3.972,0,0,1,.506.307q.3.207.356.249.356.214.763.442t.906.5q.5.271.77.428,1,.5,1.084.756a.8.8,0,0,1,.043.3Z" fill="#292929"/>
</svg>
