<svg xmlns="http://www.w3.org/2000/svg" width="39.689" height="37.209" viewBox="0 0 39.689 37.209">
  <g id="Planning" transform="translate(-2.002 -2)">
    <path id="Union_217" data-name="Union 217" d="M17550.168,5398.6a2.2,2.2,0,0,1-2.166-2.242V5368.6a2.2,2.2,0,0,1,2.232-2.247h4.957v3.721a2.73,2.73,0,0,0,5.461,0v-3.721h14.451v3.721a2.729,2.729,0,0,0,5.459,0v-3.721h4.957a2.207,2.207,0,0,1,2.172,2.247v27.759a2.2,2.2,0,0,1-2.172,2.242Zm27.6-7.442h2.48v-2.48h-2.48Zm-7.443,0h2.48v-2.48h-2.48Zm-7.441,0h2.48v-2.48h-2.48Zm-7.441,0h2.48v-2.48h-2.48Zm22.326-6.2h2.48v-2.481h-2.48Zm-7.443,0h2.48v-2.481h-2.48Zm-7.441,0h2.48v-2.481h-2.48Zm-7.441,0h2.48v-2.481h-2.48Zm22.326-6.2h2.48v-2.481h-2.48Zm-7.443,0h2.48v-2.481h-2.48Zm-7.441,0h2.48v-2.481h-2.48Zm-7.441,0h2.48v-2.481h-2.48Zm21.086-8.682v-7.442a1.24,1.24,0,1,1,2.48,0v7.442a1.24,1.24,0,0,1-2.48,0Zm-19.846,0v-7.442a1.24,1.24,0,1,1,2.48,0v7.442a1.24,1.24,0,0,1-2.48,0Z" transform="translate(-17546 -5359.395)" fill="#61bfb5"/>
  </g>
</svg>
