<svg xmlns="http://www.w3.org/2000/svg" width="30.002" height="30.002" viewBox="0 0 30.002 30.002">
  <path id="Add_widgets" data-name="Add widgets" d="M13594-4193h-24a3,3,0,0,1-3-3v-24a3,3,0,0,1,3-3h24a3,3,0,0,1,3,3v24A3,3,0,0,1,13594-4193Zm-20.574-15.8a.8.8,0,0,0-.8.8.8.8,0,0,0,.8.805h7.771v7.767a.806.806,0,0,0,.806.805.8.8,0,0,0,.8-.805v-7.767h7.767a.806.806,0,0,0,.8-.805.8.8,0,0,0-.8-.8h-7.767v-7.77a.8.8,0,0,0-.8-.8.8.8,0,0,0-.806.8v7.77Z" transform="translate(-13567.002 4223)" fill="#292929" opacity="0.5"/>
</svg>
