<svg xmlns="http://www.w3.org/2000/svg" width="72.963" height="73.88" viewBox="0 0 72.963 73.88">
  <g id="Euro" transform="translate(-70.047 -32.771)">
    <path id="Path_168" data-name="Path 168" d="M154.586,85.914c-.008,0-.015.008-.03.008C154.368,85.929,154.5,85.922,154.586,85.914Z" transform="translate(-72.839 -45.851)" fill="#073763"/>
    <path id="Path_169" data-name="Path 169" d="M155.42,85.859a.24.24,0,0,0-.052.007A.24.24,0,0,1,155.42,85.859Z" transform="translate(-73.621 -45.803)" fill="#073763"/>
    <path id="Path_170" data-name="Path 170" d="M553.235,93.753a.451.451,0,0,0-.015-.127C553.243,93.67,553.266,93.835,553.235,93.753Z" transform="translate(-416.921 -52.505)" fill="#073763"/>
    <path id="Path_171" data-name="Path 171" d="M154.554,85.922c-.188.008-.053,0,.03-.007A.045.045,0,0,0,154.554,85.922Z" transform="translate(-72.838 -45.851)" fill="#073763"/>
    <path id="Union_219" data-name="Union 219" d="M43.435,67.759a28.42,28.42,0,0,1-7.224-1.129,30.4,30.4,0,0,1-12.407-7.3A33.705,33.705,0,0,1,19.11,53.6a35.074,35.074,0,0,1-3.394-6.789c-.088-.214-.17-.432-.252-.643H4.5a4.645,4.645,0,0,1-3.177-1.323,4.52,4.52,0,0,1,0-6.357A4.683,4.683,0,0,1,4.5,37.166h.068c1.687-.017,3.354,0,5.034,0h3.932a36.185,36.185,0,0,1-.122-5.01c.02-.51.061-1.01.1-1.51H4.5A4.664,4.664,0,0,1,1.322,29.32,4.508,4.508,0,0,1,0,26.143a4.6,4.6,0,0,1,1.32-3.177A4.569,4.569,0,0,1,4.5,21.644h.068c1.673-.024,3.354,0,5.034,0h5.864a37.646,37.646,0,0,1,1.973-4.615A32.639,32.639,0,0,1,26.531,6.117,28.2,28.2,0,0,1,39.122.465a27.05,27.05,0,0,1,7.823-.3,32.8,32.8,0,0,1,4.694.85A30.395,30.395,0,0,1,62.91,7.043a32.563,32.563,0,0,1,5.632,6.224,4.52,4.52,0,0,1-1.626,6.146,4.509,4.509,0,0,1-3.456.452,3.307,3.307,0,0,1-1.537-.8,3.392,3.392,0,0,1-1.17-1.269c-.109-.153-.211-.306-.327-.459a27.081,27.081,0,0,0-4.095-4.092,25.345,25.345,0,0,0-4.7-2.758,24.121,24.121,0,0,0-4.816-1.34,23.105,23.105,0,0,0-5.061-.044,24.35,24.35,0,0,0-5.047,1.347A25.021,25.021,0,0,0,32.1,13.1a27.816,27.816,0,0,0-4.143,4.081,28.763,28.763,0,0,0-2.789,4.459H46.027A4.7,4.7,0,0,1,49.2,22.967a4.475,4.475,0,0,1,1.3,3.177,4.582,4.582,0,0,1-1.3,3.177,4.716,4.716,0,0,1-3.177,1.326H22.5a34.229,34.229,0,0,0,.007,6.52H46.027a4.5,4.5,0,0,1,3.177,7.68,4.582,4.582,0,0,1-3.177,1.323h-.082c-1.66.017-3.347,0-5.02,0H25.171a29.146,29.146,0,0,0,2.823,4.493,27.791,27.791,0,0,0,3.87,3.85,26.2,26.2,0,0,0,4.7,2.779,24.031,24.031,0,0,0,4.816,1.354,23.7,23.7,0,0,0,5.149.041,24.358,24.358,0,0,0,4.938-1.309,24.93,24.93,0,0,0,5.068-2.986,28.1,28.1,0,0,0,3.891-3.925c-.088.119-.19.241-.279.354.1-.126.2-.248.292-.378.136-.17.279-.337.408-.51-.122.143-.238.292-.354.442.088-.119.177-.238.258-.367a5.1,5.1,0,0,1,1.626-1.663c.361-.15.714-.3,1.082-.452a4.415,4.415,0,0,1,3.456.452,4.517,4.517,0,0,1,2.061,2.683,3.371,3.371,0,0,1,.1,1.8,3.231,3.231,0,0,1-.531,1.667,40.74,40.74,0,0,1-2.911,3.649,30.981,30.981,0,0,1-6.415,5.275A22.368,22.368,0,0,1,56.087,65.1a32.246,32.246,0,0,1-4.347,1.626,32.848,32.848,0,0,1-4.68.871,23.34,23.34,0,0,1-2.9.18C43.918,67.773,43.673,67.77,43.435,67.759Zm-1.272-9Zm-5.047-1.228c-.088-.044-.184-.085-.279-.126C36.932,57.451,37.027,57.491,37.116,57.536Zm-4.687-2.575c-.1-.078-.19-.153-.292-.231ZM55.87,54.92c.136-.1.258-.2.388-.3C56.128,54.723,56.006,54.818,55.87,54.92Zm-27.753-4.1ZM60.849,17.882l-.361-.463C60.6,17.576,60.726,17.725,60.849,17.882Zm-33.447,0c.075-.105.163-.221.252-.333C27.565,17.661,27.491,17.766,27.4,17.882Zm29.386-4.3Zm-4.6-2.874Zm-4.864-1.5ZM60.5,50.373c-.02.024-.034.044-.054.068s-.007.014-.014.024A.4.4,0,0,1,60.5,50.373Z" transform="translate(73.857 32.771)" fill="#073763"/>
    <g id="Group_6236" data-name="Group 6236" transform="translate(70.06 105.916)">
      <path id="Path_175" data-name="Path 175" d="M.372-1.768a.129.129,0,0,1-.041.015.211.211,0,0,1-.043,0,.155.155,0,0,1-.109-.036.142.142,0,0,1-.039-.1.139.139,0,0,1,.039-.1.151.151,0,0,1,.109-.039.136.136,0,0,1,.043.006.162.162,0,0,1,.041.015v.056a.162.162,0,0,0-.039-.019A.13.13,0,0,0,.293-1.98a.07.07,0,0,0-.058.026.092.092,0,0,0-.021.064.1.1,0,0,0,.021.069A.072.072,0,0,0,.293-1.8.129.129,0,0,0,.333-1.8a.162.162,0,0,0,.039-.019Z" transform="translate(-0.141 2.031)" fill="#073763"/>
    </g>
    <g id="Group_6237" data-name="Group 6237" transform="translate(70.348 105.985)">
      <path id="Path_176" data-name="Path 176" d="M.387-1.471a.043.043,0,0,0-.017,0l-.017,0a.051.051,0,0,0-.041.017A.068.068,0,0,0,.3-1.416v.094H.234v-.206H.3v.034a.086.086,0,0,1,.028-.028.075.075,0,0,1,.041-.011H.374l.013,0Z" transform="translate(-0.234 1.531)" fill="#073763"/>
    </g>
    <g id="Group_6238" data-name="Group 6238" transform="translate(70.518 105.985)">
      <path id="Path_177" data-name="Path 177" d="M.344-1.424V-1.4H.191a.052.052,0,0,0,.015.034.066.066,0,0,0,.041.011A.151.151,0,0,0,.29-1.366a.344.344,0,0,0,.045-.017v.049a.269.269,0,0,1-.047.013.286.286,0,0,1-.047,0,.12.12,0,0,1-.086-.028.1.1,0,0,1-.03-.079A.1.1,0,0,1,.155-1.5a.113.113,0,0,1,.084-.03.1.1,0,0,1,.075.03.1.1,0,0,1,.03.077ZM.277-1.446a.042.042,0,0,0-.011-.03.037.037,0,0,0-.03-.013.046.046,0,0,0-.03.011.046.046,0,0,0-.015.032Z" transform="translate(-0.125 1.531)" fill="#073763"/>
    </g>
    <g id="Group_6239" data-name="Group 6239" transform="translate(70.772 105.985)">
      <path id="Path_178" data-name="Path 178" d="M.232-1.413A.063.063,0,0,0,.2-1.407a.023.023,0,0,0-.011.021A.022.022,0,0,0,.2-1.366a.037.037,0,0,0,.024.006.037.037,0,0,0,.03-.013.046.046,0,0,0,.013-.034v-.006Zm.1-.026v.118H.264v-.03a.077.077,0,0,1-.03.028A.1.1,0,0,1,.2-1.317a.073.073,0,0,1-.051-.017.066.066,0,0,1-.019-.049.056.056,0,0,1,.024-.051.142.142,0,0,1,.077-.017H.264v-.006A.022.022,0,0,0,.251-1.48a.063.063,0,0,0-.036-.009.2.2,0,0,0-.041,0,.144.144,0,0,0-.032.013v-.049a.234.234,0,0,1,.043-.009l.041,0A.12.12,0,0,1,.3-1.51a.088.088,0,0,1,.026.071Z" transform="translate(-0.125 1.531)" fill="#073763"/>
    </g>
    <g id="Group_6240" data-name="Group 6240" transform="translate(71.012 105.931)">
      <path id="Path_179" data-name="Path 179" d="M.13-1.922v.058H.2v.047H.13v.088a.032.032,0,0,0,0,.019.041.041,0,0,0,.024,0H.192v.047H.136a.083.083,0,0,1-.056-.015.083.083,0,0,1-.015-.056v-.088H.031v-.047H.066v-.058Z" transform="translate(-0.031 1.922)" fill="#073763"/>
    </g>
    <g id="Group_6241" data-name="Group 6241" transform="translate(71.204 105.985)">
      <path id="Path_180" data-name="Path 180" d="M.344-1.424V-1.4H.191a.052.052,0,0,0,.015.034.066.066,0,0,0,.041.011A.151.151,0,0,0,.29-1.366a.344.344,0,0,0,.045-.017v.049a.269.269,0,0,1-.047.013.286.286,0,0,1-.047,0,.12.12,0,0,1-.086-.028.1.1,0,0,1-.03-.079A.1.1,0,0,1,.155-1.5a.113.113,0,0,1,.084-.03.1.1,0,0,1,.075.03.1.1,0,0,1,.03.077ZM.277-1.446a.042.042,0,0,0-.011-.03.037.037,0,0,0-.03-.013.046.046,0,0,0-.03.011.046.046,0,0,0-.015.032Z" transform="translate(-0.125 1.531)" fill="#073763"/>
    </g>
    <g id="Group_6242" data-name="Group 6242" transform="translate(71.458 105.91)">
      <path id="Path_181" data-name="Path 181" d="M.279-1.969v-.109H.346v.285H.279v-.03A.1.1,0,0,1,.247-1.8a.094.094,0,0,1-.036.006.078.078,0,0,1-.062-.03A.118.118,0,0,1,.125-1.9a.12.12,0,0,1,.024-.077A.079.079,0,0,1,.211-2a.078.078,0,0,1,.036.009.117.117,0,0,1,.032.026Zm-.043.133a.035.035,0,0,0,.03-.015A.066.066,0,0,0,.279-1.9a.065.065,0,0,0-.013-.043.034.034,0,0,0-.03-.017A.035.035,0,0,0,.2-1.939.072.072,0,0,0,.194-1.9.073.073,0,0,0,.2-1.851.036.036,0,0,0,.236-1.836Z" transform="translate(-0.125 2.078)" fill="#073763"/>
    </g>
    <g id="Group_6243" data-name="Group 6243" transform="translate(71.872 105.91)">
      <path id="Path_182" data-name="Path 182" d="M.344-1.836a.035.035,0,0,0,.03-.015A.066.066,0,0,0,.386-1.9a.065.065,0,0,0-.013-.043.034.034,0,0,0-.03-.017.041.041,0,0,0-.034.017A.072.072,0,0,0,.3-1.9a.073.073,0,0,0,.011.045A.042.042,0,0,0,.344-1.836ZM.3-1.969a.118.118,0,0,1,.03-.026A.089.089,0,0,1,.367-2a.076.076,0,0,1,.062.03A.124.124,0,0,1,.453-1.9a.121.121,0,0,1-.024.077.075.075,0,0,1-.062.03A.108.108,0,0,1,.329-1.8.1.1,0,0,1,.3-1.823v.03H.234v-.285H.3Z" transform="translate(-0.234 2.078)" fill="#073763"/>
    </g>
    <g id="Group_6244" data-name="Group 6244" transform="translate(72.113 105.989)">
      <path id="Path_183" data-name="Path 183" d="M.031-1.5H.1l.054.139L.2-1.5H.265l-.086.225a.1.1,0,0,1-.032.047A.069.069,0,0,1,.1-1.213H.066v-.043H.085a.034.034,0,0,0,.024-.006.034.034,0,0,0,.013-.019l0,0Z" transform="translate(-0.031 1.5)" fill="#073763"/>
    </g>
    <g id="Group_6245" data-name="Group 6245" transform="translate(72.503 105.985)">
      <path id="Path_184" data-name="Path 184" d="M.312-1.521v.051a.162.162,0,0,0-.041-.015.182.182,0,0,0-.036,0,.052.052,0,0,0-.028.006A.014.014,0,0,0,.2-1.469.014.014,0,0,0,.2-1.456a.054.054,0,0,0,.026.006l.011,0a.142.142,0,0,1,.069.021.053.053,0,0,1,.017.045A.055.055,0,0,1,.3-1.332a.134.134,0,0,1-.071.015.228.228,0,0,1-.043,0A.2.2,0,0,1,.145-1.33v-.049a.128.128,0,0,0,.039.015.191.191,0,0,0,.043,0,.062.062,0,0,0,.028,0,.019.019,0,0,0,.011-.017.015.015,0,0,0-.006-.013A.081.081,0,0,0,.231-1.4L.22-1.4a.11.11,0,0,1-.062-.019.055.055,0,0,1-.017-.045.053.053,0,0,1,.021-.047.117.117,0,0,1,.069-.017.189.189,0,0,1,.039,0l.043.006Z" transform="translate(-0.141 1.531)" fill="#073763"/>
    </g>
    <g id="Group_6246" data-name="Group 6246" transform="translate(72.739 105.91)">
      <path id="Path_185" data-name="Path 185" d="M.44-1.917v.124H.374v-.094a.232.232,0,0,0,0-.036.071.071,0,0,0,0-.017A.023.023,0,0,0,.359-1.95a.029.029,0,0,0-.015,0,.041.041,0,0,0-.034.017A.072.072,0,0,0,.3-1.894v.1H.234v-.285H.3v.109a.1.1,0,0,1,.032-.026A.085.085,0,0,1,.367-2a.066.066,0,0,1,.054.021.094.094,0,0,1,.019.064Z" transform="translate(-0.234 2.078)" fill="#073763"/>
    </g>
    <g id="Group_6247" data-name="Group 6247" transform="translate(72.991 105.985)">
      <path id="Path_186" data-name="Path 186" d="M.232-1.413A.063.063,0,0,0,.2-1.407a.023.023,0,0,0-.011.021A.022.022,0,0,0,.2-1.366a.037.037,0,0,0,.024.006.037.037,0,0,0,.03-.013.046.046,0,0,0,.013-.034v-.006Zm.1-.026v.118H.264v-.03a.077.077,0,0,1-.03.028A.1.1,0,0,1,.2-1.317a.073.073,0,0,1-.051-.017.066.066,0,0,1-.019-.049.056.056,0,0,1,.024-.051.142.142,0,0,1,.077-.017H.264v-.006A.022.022,0,0,0,.251-1.48a.063.063,0,0,0-.036-.009.2.2,0,0,0-.041,0,.144.144,0,0,0-.032.013v-.049a.234.234,0,0,1,.043-.009l.041,0A.12.12,0,0,1,.3-1.51a.088.088,0,0,1,.026.071Z" transform="translate(-0.125 1.531)" fill="#073763"/>
    </g>
    <g id="Group_6248" data-name="Group 6248" transform="translate(73.246 105.985)">
      <path id="Path_187" data-name="Path 187" d="M.312-1.521v.051a.162.162,0,0,0-.041-.015.182.182,0,0,0-.036,0,.052.052,0,0,0-.028.006A.014.014,0,0,0,.2-1.469.014.014,0,0,0,.2-1.456a.054.054,0,0,0,.026.006l.011,0a.142.142,0,0,1,.069.021.053.053,0,0,1,.017.045A.055.055,0,0,1,.3-1.332a.134.134,0,0,1-.071.015.228.228,0,0,1-.043,0A.2.2,0,0,1,.145-1.33v-.049a.128.128,0,0,0,.039.015.191.191,0,0,0,.043,0,.062.062,0,0,0,.028,0,.019.019,0,0,0,.011-.017.015.015,0,0,0-.006-.013A.081.081,0,0,0,.231-1.4L.22-1.4a.11.11,0,0,1-.062-.019.055.055,0,0,1-.017-.045.053.053,0,0,1,.021-.047.117.117,0,0,1,.069-.017.189.189,0,0,1,.039,0l.043.006Z" transform="translate(-0.141 1.531)" fill="#073763"/>
    </g>
    <g id="Group_6249" data-name="Group 6249" transform="translate(73.482 105.91)">
      <path id="Path_188" data-name="Path 188" d="M.44-1.917v.124H.374v-.094a.232.232,0,0,0,0-.036.071.071,0,0,0,0-.017A.023.023,0,0,0,.359-1.95a.029.029,0,0,0-.015,0,.041.041,0,0,0-.034.017A.072.072,0,0,0,.3-1.894v.1H.234v-.285H.3v.109a.1.1,0,0,1,.032-.026A.085.085,0,0,1,.367-2a.066.066,0,0,1,.054.021.094.094,0,0,1,.019.064Z" transform="translate(-0.234 2.078)" fill="#073763"/>
    </g>
    <g id="Group_6250" data-name="Group 6250" transform="translate(73.734 105.985)">
      <path id="Path_189" data-name="Path 189" d="M.232-1.413A.063.063,0,0,0,.2-1.407a.023.023,0,0,0-.011.021A.022.022,0,0,0,.2-1.366a.037.037,0,0,0,.024.006.037.037,0,0,0,.03-.013.046.046,0,0,0,.013-.034v-.006Zm.1-.026v.118H.264v-.03a.077.077,0,0,1-.03.028A.1.1,0,0,1,.2-1.317a.073.073,0,0,1-.051-.017.066.066,0,0,1-.019-.049.056.056,0,0,1,.024-.051.142.142,0,0,1,.077-.017H.264v-.006A.022.022,0,0,0,.251-1.48a.063.063,0,0,0-.036-.009.2.2,0,0,0-.041,0,.144.144,0,0,0-.032.013v-.049a.234.234,0,0,1,.043-.009l.041,0A.12.12,0,0,1,.3-1.51a.088.088,0,0,1,.026.071Z" transform="translate(-0.125 1.531)" fill="#073763"/>
    </g>
    <g id="Group_6251" data-name="Group 6251" transform="translate(74.002 105.985)">
      <path id="Path_190" data-name="Path 190" d="M.44-1.446v.124H.374v-.1a.209.209,0,0,0,0-.034.071.071,0,0,0,0-.017.023.023,0,0,0-.011-.009.029.029,0,0,0-.015,0,.041.041,0,0,0-.034.017A.072.072,0,0,0,.3-1.422v.1H.234v-.206H.3v.03a.1.1,0,0,1,.032-.026.085.085,0,0,1,.036-.009.066.066,0,0,1,.054.021.094.094,0,0,1,.019.064Z" transform="translate(-0.234 1.531)" fill="#073763"/>
    </g>
    <g id="Group_6252" data-name="Group 6252" transform="translate(74.269 105.91)">
      <path id="Path_191" data-name="Path 191" d="M.234-2.078H.3v.154L.374-2H.451L.35-1.9l.109.111H.38L.3-1.879v.086H.234Z" transform="translate(-0.234 2.078)" fill="#073763"/>
    </g>
    <g id="Group_6253" data-name="Group 6253" transform="translate(74.636 105.985)">
      <path id="Path_192" data-name="Path 192" d="M.312-1.521v.051a.162.162,0,0,0-.041-.015.182.182,0,0,0-.036,0,.052.052,0,0,0-.028.006A.014.014,0,0,0,.2-1.469.014.014,0,0,0,.2-1.456a.054.054,0,0,0,.026.006l.011,0a.142.142,0,0,1,.069.021.053.053,0,0,1,.017.045A.055.055,0,0,1,.3-1.332a.134.134,0,0,1-.071.015.228.228,0,0,1-.043,0A.2.2,0,0,1,.145-1.33v-.049a.128.128,0,0,0,.039.015.191.191,0,0,0,.043,0,.062.062,0,0,0,.028,0,.019.019,0,0,0,.011-.017.015.015,0,0,0-.006-.013A.081.081,0,0,0,.231-1.4L.22-1.4a.11.11,0,0,1-.062-.019.055.055,0,0,1-.017-.045.053.053,0,0,1,.021-.047.117.117,0,0,1,.069-.017.189.189,0,0,1,.039,0l.043.006Z" transform="translate(-0.141 1.531)" fill="#073763"/>
    </g>
    <g id="Group_6254" data-name="Group 6254" transform="translate(74.872 105.91)">
      <path id="Path_193" data-name="Path 193" d="M.234-2H.3v.206H.234Zm0-.079H.3v.054H.234Z" transform="translate(-0.234 2.078)" fill="#073763"/>
    </g>
    <g id="Group_6255" data-name="Group 6255" transform="translate(75 105.985)">
      <path id="Path_194" data-name="Path 194" d="M.44-1.446v.124H.374v-.1a.209.209,0,0,0,0-.034.071.071,0,0,0,0-.017.023.023,0,0,0-.011-.009.029.029,0,0,0-.015,0,.041.041,0,0,0-.034.017A.072.072,0,0,0,.3-1.422v.1H.234v-.206H.3v.03a.1.1,0,0,1,.032-.026.085.085,0,0,1,.036-.009.066.066,0,0,1,.054.021.094.094,0,0,1,.019.064Z" transform="translate(-0.234 1.531)" fill="#073763"/>
    </g>
    <g id="Group_6256" data-name="Group 6256" transform="translate(75.252 105.985)">
      <path id="Path_195" data-name="Path 195" d="M.279-1.356a.1.1,0,0,1-.032.026.072.072,0,0,1-.036.009.078.078,0,0,1-.062-.03.115.115,0,0,1-.024-.075A.116.116,0,0,1,.149-1.5a.079.079,0,0,1,.062-.03.078.078,0,0,1,.036.009A.117.117,0,0,1,.279-1.5v-.03H.346v.184a.091.091,0,0,1-.032.075.135.135,0,0,1-.09.028.189.189,0,0,1-.039,0,.153.153,0,0,1-.034-.009V-1.3a.143.143,0,0,0,.032.015.1.1,0,0,0,.034.006A.066.066,0,0,0,.264-1.3a.062.062,0,0,0,.015-.045ZM.236-1.484A.037.037,0,0,0,.2-1.469a.072.072,0,0,0-.011.043A.069.069,0,0,0,.2-1.383a.036.036,0,0,0,.032.015.035.035,0,0,0,.03-.015.063.063,0,0,0,.013-.043.065.065,0,0,0-.013-.043A.036.036,0,0,0,.236-1.484Z" transform="translate(-0.125 1.531)" fill="#073763"/>
    </g>
    <g id="Group_6257" data-name="Group 6257" transform="translate(75.536 105.91)">
      <path id="Path_196" data-name="Path 196" d="M.44-1.917v.124H.374v-.094a.232.232,0,0,0,0-.036.071.071,0,0,0,0-.017A.023.023,0,0,0,.359-1.95a.029.029,0,0,0-.015,0,.041.041,0,0,0-.034.017A.072.072,0,0,0,.3-1.894v.1H.234v-.285H.3v.109a.1.1,0,0,1,.032-.026A.085.085,0,0,1,.367-2a.066.066,0,0,1,.054.021.094.094,0,0,1,.019.064Z" transform="translate(-0.234 2.078)" fill="#073763"/>
    </g>
    <g id="Group_6258" data-name="Group 6258" transform="translate(70.047 106.285)">
      <path id="Path_197" data-name="Path 197" d="M.208-2.078v.043H.171a.029.029,0,0,0-.021.006.024.024,0,0,0,0,.017V-2H.2v.047H.145v.159H.081v-.159H.047V-2H.081v-.013A.062.062,0,0,1,.1-2.061a.086.086,0,0,1,.058-.017Z" transform="translate(-0.047 2.078)" fill="#073763"/>
    </g>
    <g id="Group_6259" data-name="Group 6259" transform="translate(70.236 106.36)">
      <path id="Path_198" data-name="Path 198" d="M.387-1.471a.043.043,0,0,0-.017,0l-.017,0a.051.051,0,0,0-.041.017A.068.068,0,0,0,.3-1.416v.094H.234v-.206H.3v.034a.086.086,0,0,1,.028-.028.075.075,0,0,1,.041-.011H.374l.013,0Z" transform="translate(-0.234 1.531)" fill="#073763"/>
    </g>
    <g id="Group_6260" data-name="Group 6260" transform="translate(70.406 106.36)">
      <path id="Path_199" data-name="Path 199" d="M.236-1.484A.044.044,0,0,0,.2-1.469a.076.076,0,0,0-.011.045A.084.084,0,0,0,.2-1.377a.042.042,0,0,0,.034.015.037.037,0,0,0,.032-.015.076.076,0,0,0,.013-.047.068.068,0,0,0-.013-.045A.039.039,0,0,0,.236-1.484Zm0-.047A.115.115,0,0,1,.32-1.5a.1.1,0,0,1,.03.077.1.1,0,0,1-.03.079.118.118,0,0,1-.084.028.117.117,0,0,1-.084-.028.106.106,0,0,1-.028-.079A.1.1,0,0,1,.153-1.5.113.113,0,0,1,.236-1.531Z" transform="translate(-0.125 1.531)" fill="#073763"/>
    </g>
    <g id="Group_6261" data-name="Group 6261" transform="translate(70.678 106.36)">
      <path id="Path_200" data-name="Path 200" d="M.423-1.493a.078.078,0,0,1,.03-.028.072.072,0,0,1,.039-.011.07.07,0,0,1,.054.021.094.094,0,0,1,.019.064v.124H.5v-.12a.053.053,0,0,0-.006-.03A.024.024,0,0,0,.47-1.482a.033.033,0,0,0-.028.015.076.076,0,0,0-.011.045v.1H.365v-.107a.088.088,0,0,0-.006-.043.019.019,0,0,0-.019-.011.034.034,0,0,0-.03.017A.072.072,0,0,0,.3-1.422v.1H.234v-.206H.3v.03a.1.1,0,0,1,.028-.026.079.079,0,0,1,.034-.009A.063.063,0,0,1,.4-1.521a.075.075,0,0,1,.026.028Z" transform="translate(-0.234 1.531)" fill="#073763"/>
    </g>
    <g id="Group_6262" data-name="Group 6262" transform="translate(71.172 106.306)">
      <path id="Path_201" data-name="Path 201" d="M.13-1.922v.058H.2v.047H.13v.088a.032.032,0,0,0,0,.019.041.041,0,0,0,.024,0H.192v.047H.136a.083.083,0,0,1-.056-.015.083.083,0,0,1-.015-.056v-.088H.031v-.047H.066v-.058Z" transform="translate(-0.031 1.922)" fill="#073763"/>
    </g>
    <g id="Group_6263" data-name="Group 6263" transform="translate(71.378 106.285)">
      <path id="Path_202" data-name="Path 202" d="M.44-1.917v.124H.374v-.094a.232.232,0,0,0,0-.036.071.071,0,0,0,0-.017A.023.023,0,0,0,.359-1.95a.029.029,0,0,0-.015,0,.041.041,0,0,0-.034.017A.072.072,0,0,0,.3-1.894v.1H.234v-.285H.3v.109a.1.1,0,0,1,.032-.026A.085.085,0,0,1,.367-2a.066.066,0,0,1,.054.021.094.094,0,0,1,.019.064Z" transform="translate(-0.234 2.078)" fill="#073763"/>
    </g>
    <g id="Group_6264" data-name="Group 6264" transform="translate(71.631 106.36)">
      <path id="Path_203" data-name="Path 203" d="M.344-1.424V-1.4H.191a.052.052,0,0,0,.015.034.066.066,0,0,0,.041.011A.151.151,0,0,0,.29-1.366a.344.344,0,0,0,.045-.017v.049a.269.269,0,0,1-.047.013.286.286,0,0,1-.047,0,.12.12,0,0,1-.086-.028.1.1,0,0,1-.03-.079A.1.1,0,0,1,.155-1.5a.113.113,0,0,1,.084-.03.1.1,0,0,1,.075.03.1.1,0,0,1,.03.077ZM.277-1.446a.042.042,0,0,0-.011-.03.037.037,0,0,0-.03-.013.046.046,0,0,0-.03.011.046.046,0,0,0-.015.032Z" transform="translate(-0.125 1.531)" fill="#073763"/>
    </g>
    <g id="Group_6265" data-name="Group 6265" transform="translate(72.032 106.295)">
      <path id="Path_204" data-name="Path 204" d="M.25-2H.329l.1.189V-2H.494v.274H.417l-.1-.189v.189H.25Z" transform="translate(-0.25 2)" fill="#073763"/>
    </g>
    <g id="Group_6266" data-name="Group 6266" transform="translate(72.329 106.36)">
      <path id="Path_205" data-name="Path 205" d="M.236-1.484A.044.044,0,0,0,.2-1.469a.076.076,0,0,0-.011.045A.084.084,0,0,0,.2-1.377a.042.042,0,0,0,.034.015.037.037,0,0,0,.032-.015.076.076,0,0,0,.013-.047.068.068,0,0,0-.013-.045A.039.039,0,0,0,.236-1.484Zm0-.047A.115.115,0,0,1,.32-1.5a.1.1,0,0,1,.03.077.1.1,0,0,1-.03.079.118.118,0,0,1-.084.028.117.117,0,0,1-.084-.028.106.106,0,0,1-.028-.079A.1.1,0,0,1,.153-1.5.113.113,0,0,1,.236-1.531Z" transform="translate(-0.125 1.531)" fill="#073763"/>
    </g>
    <g id="Group_6267" data-name="Group 6267" transform="translate(72.6 106.364)">
      <path id="Path_206" data-name="Path 206" d="M.219-1.374V-1.5H.283v.133a.023.023,0,0,0,.006.015A.034.034,0,0,0,.3-1.341l.015,0a.035.035,0,0,0,.03-.015A.063.063,0,0,0,.358-1.4v-.1H.424v.206H.358v-.03A.1.1,0,0,1,.326-1.3a.087.087,0,0,1-.034.006.07.07,0,0,1-.056-.021.094.094,0,0,1-.017-.062Z" transform="translate(-0.219 1.5)" fill="#073763"/>
    </g>
    <g id="Group_6268" data-name="Group 6268" transform="translate(72.869 106.36)">
      <path id="Path_207" data-name="Path 207" d="M.44-1.446v.124H.374v-.1a.209.209,0,0,0,0-.034.071.071,0,0,0,0-.017.023.023,0,0,0-.011-.009.029.029,0,0,0-.015,0,.041.041,0,0,0-.034.017A.072.072,0,0,0,.3-1.422v.1H.234v-.206H.3v.03a.1.1,0,0,1,.032-.026.085.085,0,0,1,.036-.009.066.066,0,0,1,.054.021.094.094,0,0,1,.019.064Z" transform="translate(-0.234 1.531)" fill="#073763"/>
    </g>
    <g id="Group_6269" data-name="Group 6269" transform="translate(73.268 106.295)">
      <path id="Path_208" data-name="Path 208" d="M.25-2H.368a.121.121,0,0,1,.079.024.084.084,0,0,1,.028.066.083.083,0,0,1-.028.066.118.118,0,0,1-.079.024H.321v.094H.25Zm.071.051v.077H.359A.051.051,0,0,0,.391-1.88.041.041,0,0,0,.4-1.91a.034.034,0,0,0-.011-.028.046.046,0,0,0-.032-.011Z" transform="translate(-0.25 2)" fill="#073763"/>
    </g>
    <g id="Group_6270" data-name="Group 6270" transform="translate(73.541 106.36)">
      <path id="Path_209" data-name="Path 209" d="M.387-1.471a.043.043,0,0,0-.017,0l-.017,0a.051.051,0,0,0-.041.017A.068.068,0,0,0,.3-1.416v.094H.234v-.206H.3v.034a.086.086,0,0,1,.028-.028.075.075,0,0,1,.041-.011H.374l.013,0Z" transform="translate(-0.234 1.531)" fill="#073763"/>
    </g>
    <g id="Group_6271" data-name="Group 6271" transform="translate(73.711 106.36)">
      <path id="Path_210" data-name="Path 210" d="M.236-1.484A.044.044,0,0,0,.2-1.469a.076.076,0,0,0-.011.045A.084.084,0,0,0,.2-1.377a.042.042,0,0,0,.034.015.037.037,0,0,0,.032-.015.076.076,0,0,0,.013-.047.068.068,0,0,0-.013-.045A.039.039,0,0,0,.236-1.484Zm0-.047A.115.115,0,0,1,.32-1.5a.1.1,0,0,1,.03.077.1.1,0,0,1-.03.079.118.118,0,0,1-.084.028.117.117,0,0,1-.084-.028.106.106,0,0,1-.028-.079A.1.1,0,0,1,.153-1.5.113.113,0,0,1,.236-1.531Z" transform="translate(-0.125 1.531)" fill="#073763"/>
    </g>
    <g id="Group_6272" data-name="Group 6272" transform="translate(73.938 106.285)">
      <path id="Path_211" data-name="Path 211" d="M-.049-2H.016v.2A.094.094,0,0,1,0-1.733a.075.075,0,0,1-.058.021H-.094v-.043h.011a.032.032,0,0,0,.026-.009A.052.052,0,0,0-.049-1.8Zm0-.079H.016v.054H-.049Z" transform="translate(0.094 2.078)" fill="#073763"/>
    </g>
    <g id="Group_6273" data-name="Group 6273" transform="translate(74.097 106.36)">
      <path id="Path_212" data-name="Path 212" d="M.344-1.424V-1.4H.191a.052.052,0,0,0,.015.034.066.066,0,0,0,.041.011A.151.151,0,0,0,.29-1.366a.344.344,0,0,0,.045-.017v.049a.269.269,0,0,1-.047.013.286.286,0,0,1-.047,0,.12.12,0,0,1-.086-.028.1.1,0,0,1-.03-.079A.1.1,0,0,1,.155-1.5a.113.113,0,0,1,.084-.03.1.1,0,0,1,.075.03.1.1,0,0,1,.03.077ZM.277-1.446a.042.042,0,0,0-.011-.03.037.037,0,0,0-.03-.013.046.046,0,0,0-.03.011.046.046,0,0,0-.015.032Z" transform="translate(-0.125 1.531)" fill="#073763"/>
    </g>
    <g id="Group_6274" data-name="Group 6274" transform="translate(74.351 106.36)">
      <path id="Path_213" data-name="Path 213" d="M.3-1.521v.054A.131.131,0,0,0,.277-1.48a.1.1,0,0,0-.028,0,.059.059,0,0,0-.043.017.058.058,0,0,0-.015.043.067.067,0,0,0,.015.047.062.062,0,0,0,.043.015.086.086,0,0,0,.03,0A.12.12,0,0,0,.3-1.381v.054a.129.129,0,0,1-.032.009l-.03,0a.128.128,0,0,1-.088-.028.1.1,0,0,1-.03-.079A.1.1,0,0,1,.155-1.5a.124.124,0,0,1,.088-.03.119.119,0,0,1,.03,0L.3-1.521Z" transform="translate(-0.125 1.531)" fill="#073763"/>
    </g>
    <g id="Group_6275" data-name="Group 6275" transform="translate(74.561 106.306)">
      <path id="Path_214" data-name="Path 214" d="M.13-1.922v.058H.2v.047H.13v.088a.032.032,0,0,0,0,.019.041.041,0,0,0,.024,0H.192v.047H.136a.083.083,0,0,1-.056-.015.083.083,0,0,1-.015-.056v-.088H.031v-.047H.066v-.058Z" transform="translate(-0.031 1.922)" fill="#073763"/>
    </g>
  </g>
</svg>
