<svg xmlns="http://www.w3.org/2000/svg" width="35.085" height="35.084" viewBox="0 0 35.085 35.084">
  <path id="Settings" d="M34.24,22.672a10.9,10.9,0,0,0,.09-1.755c0-.615-.09-1.139-.09-1.755l3.768-2.894a.8.8,0,0,0,.18-1.139L34.6,9.076a.875.875,0,0,0-1.077-.351l-4.486,1.755a13.08,13.08,0,0,0-3.049-1.755l-.629-4.648a.962.962,0,0,0-.9-.7H17.284a.962.962,0,0,0-.9.7L15.67,8.725a15.194,15.194,0,0,0-3.05,1.755L8.133,8.725a.84.84,0,0,0-1.077.351L3.467,15.129a1.057,1.057,0,0,0,.18,1.139L7.5,19.162c0,.614-.09,1.139-.09,1.755s.09,1.139.09,1.755L3.737,25.566a.8.8,0,0,0-.18,1.139l3.589,6.052a.875.875,0,0,0,1.077.351l4.486-1.755a13.08,13.08,0,0,0,3.049,1.755l.717,4.648a.869.869,0,0,0,.9.7h7.176a.962.962,0,0,0,.9-.7l.718-4.648a15.186,15.186,0,0,0,3.049-1.755L33.7,33.11a.84.84,0,0,0,1.077-.351l3.589-6.052a1.054,1.054,0,0,0-.18-1.139l-3.947-2.894ZM20.873,27.057a6.142,6.142,0,1,1,0-12.28,6.142,6.142,0,1,1,0,12.28Z" transform="translate(-3.374 -3.375)" fill="#292929" opacity="0.5"/>
</svg>
