<svg xmlns="http://www.w3.org/2000/svg" width="96.623" height="87.66" viewBox="0 0 96.623 87.66">
  <path id="Timetable" d="M117.046,57.542a1.24,1.24,0,0,0-.142.013,1.421,1.421,0,0,0-1.266,1.434v4.549h2.852V58.989h0a1.422,1.422,0,0,0-1.444-1.444Zm1.445,5.993V72.32h0a1.426,1.426,0,1,1-2.851,0V63.535h-5.657a5.21,5.21,0,0,0-5.192,5.192v11.95h82.494V68.727a5.21,5.21,0,0,0-5.192-5.192h-5.664V72.32a1.423,1.423,0,1,1-2.838,0V63.535H161.949V72.32a1.426,1.426,0,1,1-2.851,0V63.535h-11.64V72.32a1.423,1.423,0,1,1-2.842,0V63.535H132.972V72.32a1.422,1.422,0,1,1-2.842,0V63.535Zm11.64,0h2.842V58.986h0a1.421,1.421,0,0,0-1.441-1.445,1.3,1.3,0,0,0-.145.013,1.421,1.421,0,0,0-1.256,1.434Zm14.485,0h2.842V58.986h0a1.421,1.421,0,0,0-1.448-1.445,1.227,1.227,0,0,0-.141.013,1.422,1.422,0,0,0-1.253,1.434Zm14.482,0h2.852V58.986h0a1.422,1.422,0,0,0-1.444-1.445,1.326,1.326,0,0,0-.145.013,1.422,1.422,0,0,0-1.262,1.434Zm14.492,0h2.838V58.986h0a1.422,1.422,0,0,0-1.442-1.445,1.33,1.33,0,0,0-.145.013,1.422,1.422,0,0,0-1.252,1.434Zm-68.8,19.994v43.877a5.21,5.21,0,0,0,5.192,5.192h41.4a27.763,27.763,0,0,1-2.848-12.216,28.122,28.122,0,0,1,28.054-28.058,27.814,27.814,0,0,1,10.691,2.135V83.529Zm10.525,3.63h7.462a1.423,1.423,0,0,1,1.421,1.435v7.462a1.422,1.422,0,0,1-1.421,1.421h-7.462a1.422,1.422,0,0,1-1.432-1.421V88.593a1.423,1.423,0,0,1,1.432-1.435Zm16.465,0h7.475a1.423,1.423,0,0,1,1.421,1.435v7.462a1.422,1.422,0,0,1-1.421,1.421H131.78a1.422,1.422,0,0,1-1.421-1.421V88.593a1.423,1.423,0,0,1,1.421-1.435Zm16.223,0h7.465a1.423,1.423,0,0,1,1.418,1.435v7.462a1.423,1.423,0,0,1-1.418,1.421H148a1.423,1.423,0,0,1-1.418-1.421V88.593A1.423,1.423,0,0,1,148,87.159Zm28.59,8.4a24.821,24.821,0,1,0,24.819,24.823A24.845,24.845,0,0,0,176.593,95.56Zm-61.418,6.071c.047,0,.094,0,.142,0h7.462a1.422,1.422,0,0,1,1.421,1.421v7.462a1.423,1.423,0,0,1-1.421,1.421h-7.462a1.423,1.423,0,0,1-1.431-1.421v-7.462a1.423,1.423,0,0,1,1.29-1.421Zm16.465,0q.07,0,.141,0h7.472a1.422,1.422,0,0,1,1.424,1.421v7.462a1.423,1.423,0,0,1-1.424,1.422h-7.472a1.423,1.423,0,0,1-1.421-1.421v-7.461a1.424,1.424,0,0,1,1.28-1.421Zm47.278,6.957h0a1.422,1.422,0,0,1,1.444,1.445V125.5h0a1.423,1.423,0,0,1-1.434,1.425H165.954a1.423,1.423,0,1,1,0-2.845h11.559V110.032h0a1.423,1.423,0,0,1,1.262-1.435c.047-.007.095-.011.142-.013Zm-63.743,7.5c.047,0,.094,0,.142,0h7.462a1.422,1.422,0,0,1,1.421,1.422v7.461a1.422,1.422,0,0,1-1.421,1.421h-7.462a1.423,1.423,0,0,1-1.431-1.421V117.51a1.423,1.423,0,0,1,1.29-1.421Zm16.465,0q.07,0,.141,0h7.472a1.423,1.423,0,0,1,1.424,1.422v7.461a1.423,1.423,0,0,1-1.424,1.421h-7.472a1.422,1.422,0,0,1-1.421-1.421V117.51a1.423,1.423,0,0,1,1.28-1.421Z" transform="translate(-104.789 -57.542)" fill="#073763"/>
</svg>
