<svg xmlns="http://www.w3.org/2000/svg" width="28.872" height="28.903" viewBox="0 0 28.872 28.903">
  <g id="calendar" transform="translate(0 0)">
    <path id="Path_135" data-name="Path 135" d="M29.854,11.495H1.018A.326.326,0,0,0,1,11.608V28.914a2.88,2.88,0,0,0,2.874,2.878H26.993a2.881,2.881,0,0,0,2.878-2.878V11.608A.325.325,0,0,0,29.854,11.495ZM7.842,28.472a.439.439,0,0,1-.437.437H4.937a.439.439,0,0,1-.437-.437V26a.436.436,0,0,1,.437-.437H7.4A.436.436,0,0,1,7.842,26v2.467Zm0-5.757a.439.439,0,0,1-.437.437H4.937a.439.439,0,0,1-.437-.437V20.248a.439.439,0,0,1,.437-.437H7.4a.439.439,0,0,1,.437.437v2.467Zm6.177,5.757a.439.439,0,0,1-.437.437H11.114a.439.439,0,0,1-.437-.437V26a.436.436,0,0,1,.437-.437h2.467a.436.436,0,0,1,.437.437v2.467Zm0-5.757a.439.439,0,0,1-.437.437H11.114a.439.439,0,0,1-.437-.437V20.248a.439.439,0,0,1,.437-.437h2.467a.439.439,0,0,1,.437.437v2.467ZM20.2,28.472a.439.439,0,0,1-.437.437H17.291a.436.436,0,0,1-.437-.437V26a.433.433,0,0,1,.437-.437h2.467A.436.436,0,0,1,20.2,26Zm0-5.757a.439.439,0,0,1-.437.437H17.291a.436.436,0,0,1-.437-.437V20.248a.436.436,0,0,1,.437-.437h2.467a.439.439,0,0,1,.437.437Zm0-5.757a.439.439,0,0,1-.437.437H17.291a.436.436,0,0,1-.437-.437V14.491a.436.436,0,0,1,.437-.437h2.467a.439.439,0,0,1,.437.437Zm6.177,11.514a.439.439,0,0,1-.437.437H23.467a.436.436,0,0,1-.437-.437V26a.433.433,0,0,1,.437-.437h2.467a.436.436,0,0,1,.437.437Zm0-5.757a.439.439,0,0,1-.437.437H23.467a.436.436,0,0,1-.437-.437V20.248a.436.436,0,0,1,.437-.437h2.467a.439.439,0,0,1,.437.437Zm0-5.757a.439.439,0,0,1-.437.437H23.467a.436.436,0,0,1-.437-.437V14.491a.436.436,0,0,1,.437-.437h2.467a.439.439,0,0,1,.437.437Zm.621-12.572H24.307v2.76A1.708,1.708,0,1,1,21.285,8.24a1.7,1.7,0,0,1,.4-1.094V4.386H9.189v2.76a1.706,1.706,0,1,1-2.625,0V4.386H3.874A2.88,2.88,0,0,0,1,7.264V10.62H29.872V7.264A2.881,2.881,0,0,0,26.993,4.386ZM14.179,8.675H12.154a.437.437,0,0,1,0-.875h2.025a.437.437,0,0,1,0,.875Zm4.536,0H16.273a.437.437,0,0,1,0-.875h2.443a.437.437,0,0,1,0,.875Z" transform="translate(-1 -2.889)" fill="#292929"/>
    <path id="Path_136" data-name="Path 136" d="M16.158,6.75a.437.437,0,0,0,.437-.437V1.4a.437.437,0,1,0-.875,0V6.313A.437.437,0,0,0,16.158,6.75Zm15.116,0a.437.437,0,0,0,.437-.437V1.4a.437.437,0,1,0-.875,0V6.313A.437.437,0,0,0,31.274,6.75Z" transform="translate(-9.281 -0.964)" fill="#292929"/>
  </g>
</svg>
