<svg xmlns="http://www.w3.org/2000/svg" width="140" height="140" viewBox="0 0 140 140">
  <path id="qrcode" d="M135.624,122.5a4.436,4.436,0,1,1,3.076-1.3A4.2,4.2,0,0,1,135.624,122.5Zm0-35a4.436,4.436,0,0,1-4.375-4.375v-8.75a4.375,4.375,0,0,1,8.75,0v8.75a4.436,4.436,0,0,1-4.375,4.375Zm0-35h-4.375v4.375a4.375,4.375,0,0,1-8.75,0V52.5H105v4.375a4.436,4.436,0,0,1-4.375,4.375H96.25v4.375a4.375,4.375,0,0,1-8.75,0V35H74.376A4.35,4.35,0,0,1,71.3,27.549a4.2,4.2,0,0,1,3.076-1.3H87.5V8.75h-8.75v4.375a4.2,4.2,0,0,1-1.3,3.076,4.292,4.292,0,0,1-6.152,0A4.2,4.2,0,0,1,70,13.125V4.375A4.2,4.2,0,0,1,71.3,1.3,4.2,4.2,0,0,1,74.376,0h61.248A4.2,4.2,0,0,1,138.7,1.3,4.2,4.2,0,0,1,140,4.375v43.75a4.436,4.436,0,0,1-4.375,4.375Zm-4.375-39.375a4.2,4.2,0,0,0-1.3-3.076,4.2,4.2,0,0,0-3.076-1.3H100.625a4.2,4.2,0,0,0-3.076,1.3,4.2,4.2,0,0,0-1.3,3.076v26.25a4.436,4.436,0,0,0,4.375,4.375h26.249a4.436,4.436,0,0,0,4.375-4.375ZM118.125,35h-8.75A4.436,4.436,0,0,1,105,30.625v-8.75a4.436,4.436,0,0,1,4.375-4.375h8.75a4.436,4.436,0,0,1,4.375,4.375v8.75A4.436,4.436,0,0,1,118.125,35ZM70,43.75h4.375a4.375,4.375,0,0,1,0,8.75H61.251v4.375a4.375,4.375,0,0,1-8.75,0V52.5H26.252v8.75H35V56.875a4.375,4.375,0,0,1,8.75,0V70h4.375a4.375,4.375,0,0,1,0,8.75h-8.75A4.436,4.436,0,0,1,35,74.375V70H21.877A4.459,4.459,0,0,1,18.8,68.837a3.632,3.632,0,0,1-1.3-2.8V52.5H8.753v4.783a3.632,3.632,0,0,1-1.3,2.8A4.459,4.459,0,0,1,4.378,61.25,4.459,4.459,0,0,1,1.3,60.087a3.632,3.632,0,0,1-1.3-2.8v-8.2a1.232,1.232,0,0,1,.136-.548.279.279,0,0,0-.07-.206A.279.279,0,0,1,0,48.121V4.375A4.2,4.2,0,0,1,1.3,1.3,4.2,4.2,0,0,1,4.374,0H48.123A4.2,4.2,0,0,1,51.2,1.3a4.2,4.2,0,0,1,1.3,3.076V8.75h4.375a4.2,4.2,0,0,1,3.076,1.3,4.292,4.292,0,0,1,0,6.152,4.2,4.2,0,0,1-3.076,1.3H52.5v8.75h4.375A4.35,4.35,0,0,1,59.948,33.7,4.2,4.2,0,0,1,56.872,35H52.5v8.75h8.75V39.375a4.375,4.375,0,0,1,8.75,0V43.75ZM43.752,13.125a4.2,4.2,0,0,0-1.3-3.076,4.2,4.2,0,0,0-3.076-1.3H13.128a4.2,4.2,0,0,0-3.076,1.3,4.2,4.2,0,0,0-1.3,3.076v26.25a4.2,4.2,0,0,0,1.3,3.076,4.2,4.2,0,0,0,3.076,1.3H39.377a4.436,4.436,0,0,0,4.375-4.375ZM30.627,35h-8.75A4.436,4.436,0,0,1,17.5,30.625v-8.75A4.436,4.436,0,0,1,21.877,17.5h8.75A4.436,4.436,0,0,1,35,21.875v8.75A4.436,4.436,0,0,1,30.627,35ZM4.378,70a4.2,4.2,0,0,1,3.076,1.3,4.292,4.292,0,0,1,0,6.152,4.2,4.2,0,0,1-3.076,1.3,4.2,4.2,0,0,1-3.076-1.3,4.292,4.292,0,0,1,0-6.152A4.2,4.2,0,0,1,4.378,70Zm61.248,8.75a4.436,4.436,0,1,1,3.076-1.3A4.2,4.2,0,0,1,65.626,78.75Zm8.75-17.5a4.436,4.436,0,1,1-3.076,1.3A4.2,4.2,0,0,1,74.376,61.25ZM105,65.625a4.436,4.436,0,1,1,1.3,3.076A4.2,4.2,0,0,1,105,65.625ZM4.378,87.5H17.5V83.125a4.35,4.35,0,0,1,7.451-3.076,4.2,4.2,0,0,1,1.3,3.076V87.5H48.127A4.436,4.436,0,0,1,52.5,91.875v-8.75a4.375,4.375,0,0,1,8.75,0v8.75h17.5v-8.75a4.436,4.436,0,0,1,4.375-4.375H113.75V74.375a4.375,4.375,0,0,1,8.75,0V96.25h4.375a4.375,4.375,0,0,1,0,8.75H122.5v13.125a4.436,4.436,0,0,1-4.375,4.375H105v13.125a4.375,4.375,0,0,1-8.75,0V122.5H87.5v4.375a4.375,4.375,0,0,1-8.75,0V122.5H74.376a4.375,4.375,0,0,1,0-8.75h4.375V100.625H52.5V122.5h4.375a4.375,4.375,0,0,1,0,8.75H52.5v4.375A4.436,4.436,0,0,1,48.127,140H4.378A4.2,4.2,0,0,1,1.3,138.7,4.2,4.2,0,0,1,0,135.625V91.875A4.2,4.2,0,0,1,1.3,88.8,4.2,4.2,0,0,1,4.378,87.5Zm87.5,26.25h17.5a4.436,4.436,0,0,0,4.375-4.375v-17.5a4.436,4.436,0,0,0-4.375-4.375h-17.5A4.436,4.436,0,0,0,87.5,91.875v17.5a4.436,4.436,0,0,0,4.375,4.375ZM8.753,126.875a4.2,4.2,0,0,0,1.3,3.076,4.2,4.2,0,0,0,3.076,1.3H39.377a4.436,4.436,0,0,0,4.375-4.375v-26.25a4.436,4.436,0,0,0-4.375-4.375H13.128a4.2,4.2,0,0,0-3.076,1.3,4.2,4.2,0,0,0-1.3,3.076ZM21.877,105h8.75A4.436,4.436,0,0,1,35,109.375v8.75a4.436,4.436,0,0,1-4.375,4.375h-8.75a4.436,4.436,0,0,1-4.375-4.375v-8.75A4.436,4.436,0,0,1,21.877,105Zm78.748-8.75a4.436,4.436,0,1,1-3.076,1.3A4.2,4.2,0,0,1,100.625,96.25Zm-35,8.75a4.436,4.436,0,1,1-3.076,1.3A4.2,4.2,0,0,1,65.626,105Zm8.75,26.25a4.436,4.436,0,1,1-3.076,1.3A4.2,4.2,0,0,1,74.376,131.25Zm43.749,0H122.5v-4.375a4.375,4.375,0,0,1,8.75,0v4.375h4.375a4.375,4.375,0,0,1,0,8.75h-17.5a4.375,4.375,0,0,1,0-8.75Z" transform="translate(0.001)" fill="#292929"/>
</svg>
