<svg xmlns="http://www.w3.org/2000/svg" width="41.016" height="37.211" viewBox="0 0 41.016 37.211">
  <path id="Timetable" d="M109.992,57.542a.525.525,0,0,0-.06.006.6.6,0,0,0-.537.609v1.931h1.211V58.156h0a.6.6,0,0,0-.613-.613Zm.613,2.544v3.729h0a.606.606,0,1,1-1.21,0V60.086h-2.4a2.212,2.212,0,0,0-2.2,2.2v5.073h35.018V62.29a2.212,2.212,0,0,0-2.2-2.2h-2.4v3.729a.6.6,0,1,1-1.2,0V60.086h-4.941v3.729a.606.606,0,1,1-1.21,0V60.086H122.9v3.729a.6.6,0,1,1-1.206,0V60.086h-4.943v3.729a.6.6,0,1,1-1.206,0V60.086Zm4.941,0h1.207V58.155h0a.6.6,0,0,0-.612-.613.55.55,0,0,0-.061.006.6.6,0,0,0-.533.609Zm6.149,0H122.9V58.155h0a.6.6,0,0,0-.615-.613.522.522,0,0,0-.06.006.6.6,0,0,0-.532.609Zm6.148,0h1.211V58.155h0a.6.6,0,0,0-.613-.613.564.564,0,0,0-.062.006.6.6,0,0,0-.536.609Zm6.152,0h1.2V58.155h0a.6.6,0,0,0-.612-.613.565.565,0,0,0-.061.006.6.6,0,0,0-.532.609Zm-29.205,8.487V87.2a2.212,2.212,0,0,0,2.2,2.2h17.576a11.785,11.785,0,0,1-1.209-5.185,11.937,11.937,0,0,1,11.909-11.91,11.807,11.807,0,0,1,4.538.906v-4.64Zm4.468,1.541h3.168a.6.6,0,0,1,.6.609V73.89a.6.6,0,0,1-.6.6h-3.167a.6.6,0,0,1-.608-.6V70.723a.6.6,0,0,1,.608-.609Zm6.989,0h3.173a.6.6,0,0,1,.6.609V73.89a.6.6,0,0,1-.6.6h-3.173a.6.6,0,0,1-.6-.6V70.723a.6.6,0,0,1,.6-.609Zm6.887,0H126.3a.6.6,0,0,1,.6.609V73.89a.6.6,0,0,1-.6.6h-3.169a.6.6,0,0,1-.6-.6V70.723a.6.6,0,0,1,.6-.609Zm12.136,3.566A10.536,10.536,0,1,0,145.8,84.217,10.546,10.546,0,0,0,135.269,73.68ZM109.2,76.257h3.227a.6.6,0,0,1,.6.6v3.167a.6.6,0,0,1-.6.6h-3.167a.6.6,0,0,1-.608-.6V76.86a.6.6,0,0,1,.548-.6Zm6.989,0h3.232a.6.6,0,0,1,.6.6v3.167a.6.6,0,0,1-.6.6h-3.172a.6.6,0,0,1-.6-.6V76.86A.6.6,0,0,1,116.187,76.257Zm20.069,2.953h0a.6.6,0,0,1,.613.613V86.39h0a.6.6,0,0,1-.609.6h-5.509a.6.6,0,1,1,0-1.208h4.907V79.823h0a.6.6,0,0,1,.536-.609c.02,0,.04,0,.06-.006ZM109.2,82.394h3.227a.6.6,0,0,1,.6.6v3.167a.6.6,0,0,1-.6.6h-3.167a.6.6,0,0,1-.608-.6V83a.6.6,0,0,1,.548-.6Zm6.989,0h3.232a.6.6,0,0,1,.6.6v3.167a.6.6,0,0,1-.6.6h-3.172a.6.6,0,0,1-.6-.6V83a.6.6,0,0,1,.543-.6Z" transform="translate(-104.789 -57.542)" fill="#61bfb5"/>
</svg>
